<svg width="717" height="497" viewBox="0 0 717 497" fill="none"
  xmlns="http://www.w3.org/2000/svg">
  <g opacity="0.2">
    <path d="M600.862 68.3527L548.961 38.3946L552.326 36.444L604.227 66.4184L600.862 68.3527Z" fill="url(#paint0_linear_106_167)"/>
    <path d="M566.029 81.3243L572.904 85.2906L576.318 83.3237L569.442 79.3574L566.029 81.3243ZM584.477 97.1405L580.251 94.7023L576.838 96.6691L581.064 99.1074L584.477 97.1405ZM588.314 90.2484L579.146 84.9492L575.733 86.9161L584.9 92.2152L588.314 90.2484ZM609.396 102.765L591.126 91.8739L587.712 93.8407L605.982 104.732L609.396 102.765ZM581.535 104.537L566.728 95.9864L563.314 97.9533L578.122 106.503L581.535 104.537V104.537ZM563.899 94.3609L554.732 89.0617L551.318 91.0286L560.486 96.3278L563.899 94.3609ZM554.976 84.0389L574.01 95.0274L577.423 93.0605L558.389 82.072L554.976 84.0389ZM568.889 106.341L549.855 95.3525L546.442 97.3193L565.476 108.308L568.889 106.341V106.341ZM601.935 107.219L587.306 98.766L583.892 100.733L598.521 109.186L601.935 107.219ZM591.954 110.551L584.347 106.178L580.934 108.145L588.541 112.518L591.954 110.551ZM566.63 77.7319L559.998 73.8957L556.585 75.8626L563.217 79.6988L566.63 77.7319ZM547.027 93.727L536.348 87.55L532.935 89.5169L543.614 95.6938L547.027 93.727ZM551.92 87.4525L544.231 83.0148L540.818 84.9817L548.506 89.4194L551.92 87.4525ZM555.577 80.4628L552.115 78.4634L548.701 80.4303L552.164 82.4297L555.577 80.4628Z" fill="url(#paint1_linear_106_167)"/>
    <path d="M551.14 65.6544L501.986 94.0358L452.93 65.7031L502.084 37.3217L551.14 65.6544ZM554.813 65.6544L502.068 35.2086L449.257 65.7031L502.002 96.149L554.813 65.6544Z" fill="url(#paint2_linear_106_167)"/>
    <path d="M660.987 77.927L532.398 3.68991C523.93 -1.20288 510.195 -1.21913 501.775 3.64115L294.709 123.197L295.929 123.913L503.01 4.34012C510.747 -0.130041 523.393 -0.113786 531.179 4.38888L659.768 78.626C667.554 83.1286 667.603 90.4272 659.849 94.8811L451.516 215.169L452.735 215.884L661.069 95.5963C669.488 90.736 669.44 82.8035 660.971 77.9108L660.987 77.927Z" fill="url(#paint3_linear_106_167)"/>
  </g>
  <path opacity="0.2" d="M303.549 162.229L293.707 156.55L286.325 160.809L303.595 170.777L320.758 160.886L313.33 156.596L303.549 162.244V162.229ZM303.488 150.917L295.587 155.482L303.549 160.077L311.45 155.512L303.488 150.917ZM303.488 148.765L322.638 159.802L330.952 155.009L303.442 139.148L276.1 154.917L284.46 159.741L303.488 148.765ZM182.43 213.062L523.596 409.797L393.384 288.15L182.415 213.062H182.43ZM606.263 362.125L265.097 165.389L395.309 287.036L606.263 362.125ZM528.624 411.599L609.365 365.04L398.412 289.952L528.624 411.599ZM260.053 163.587L179.312 210.146L390.266 285.235L260.053 163.587ZM505.73 422.071L319.52 314.681L372.308 391.617L505.73 422.055V422.071ZM235.493 360.415L368.915 390.854L316.127 313.918L235.493 360.415ZM236.838 362.369L423.048 469.743L370.26 392.807L236.838 362.369ZM426.441 470.522L507.075 424.025L373.653 393.586L426.441 470.522ZM294.746 123.792L42.1763 269.435L424.087 489.664L676.657 344.02L294.746 123.792ZM631.48 368.612L252.595 150.124L251.342 150.841L630.227 369.33L424.072 488.214L44.6827 269.451L294.746 125.242L674.135 344.02L631.48 368.612ZM149.586 227.93L174.88 242.523L180.168 239.47L154.874 224.877L149.586 227.93ZM282.321 293.188L287.609 290.135L280.364 285.967L275.076 289.02L282.321 293.188ZM195.207 248.125L184.554 241.989L179.266 245.042L189.919 251.178L195.207 248.125ZM180.306 234.356L209.802 251.362L215.09 248.309L185.594 231.303L180.306 234.356ZM159.383 222.282L175.935 231.838L181.223 228.785L164.671 219.229L159.383 222.282ZM212.859 264.413L239.895 280.014L245.183 276.961L218.147 261.36L212.859 264.413ZM230.404 257.132L225.116 260.185L247.781 273.252L253.069 270.199L230.404 257.132ZM249.569 279.464L244.281 282.518L251.388 286.609L256.676 283.556L249.569 279.464ZM226.033 254.598L219.476 250.812L214.188 253.865L220.745 257.651L226.033 254.598ZM194.29 253.682L208.488 261.879L213.776 258.826L199.578 250.629L194.29 253.682ZM276.024 283.418L257.455 272.702L252.167 275.755L270.736 286.471L276.024 283.418ZM286.707 295.691L310.61 309.476L315.898 306.423L291.995 292.638L286.707 295.691ZM255.759 289.127L275.153 300.317L280.441 297.264L261.047 286.074L255.759 289.127ZM618.917 330.725L602.045 320.985L591.897 326.832L608.769 336.571L618.917 330.725ZM566.251 300.362L547.163 289.356L537.015 295.203L556.103 306.209L566.251 300.362ZM597.658 318.482L570.622 302.881L560.474 308.728L587.51 324.328L597.658 318.482ZM517.987 272.534L492.694 257.941L482.546 263.787L507.839 278.381L517.987 272.534ZM642.667 344.433L623.273 333.243L613.125 339.09L632.519 350.279L642.667 344.433ZM542.777 286.838L522.343 275.053L512.195 280.899L532.629 292.684L542.777 286.838ZM152.185 266.123L147.691 263.528L144.054 265.619L148.547 268.214L152.185 266.123ZM122.52 243.531L129.565 247.591L133.203 245.5L126.157 241.439L122.52 243.531ZM130.895 238.692L142.449 245.347L146.087 243.256L134.532 236.6L130.895 238.692ZM114.129 248.354L117.813 250.476L121.45 248.385L117.767 246.263L114.129 248.354ZM177.799 271.221L159.245 260.521L155.608 262.612L174.162 273.313L177.799 271.221ZM156.25 258.796L146.499 253.178L142.862 255.269L152.612 260.887L156.25 258.796ZM181.727 306.682L185.364 304.591L180.397 301.721L176.76 303.812L181.727 306.682ZM172.312 258.399L168.675 260.49L173.168 263.085L176.806 260.994L172.312 258.399ZM207.892 307.919L184.463 294.409L180.825 296.5L204.254 310.01L207.892 307.919ZM132.561 249.331L139.866 253.544L143.504 251.453L136.198 247.24L132.561 249.331ZM120.808 252.216L141.043 263.894L144.68 261.803L124.446 250.125L120.808 252.216ZM145.445 247.087L165.68 258.765L169.317 256.674L149.082 244.996L145.445 247.087ZM219.293 289.677L234.851 298.653L238.489 296.561L222.93 287.585L219.293 289.677ZM119.662 280.548L129.413 286.166L133.05 284.075L123.299 278.457L119.662 280.548ZM165.175 283.265L152.062 275.694L148.425 277.785L161.538 285.357L165.175 283.265ZM134.976 279.709L139.469 282.304L143.106 280.212L138.613 277.617L134.976 279.709ZM132.408 287.891L150.962 298.592L154.599 296.5L136.046 285.799L132.408 287.891ZM109.361 274.595L116.666 278.808L120.304 276.717L112.998 272.504L109.361 274.595ZM250.196 312.956L218.59 294.73L214.953 296.821L246.558 315.047L250.196 312.956ZM177.417 299.981L164.671 292.638L161.033 294.73L173.78 302.072L177.417 299.981ZM89.0039 262.856L106.366 272.87L110.003 270.779L92.6413 260.765L89.0039 262.856ZM207.555 311.887L230.068 324.878L233.705 322.787L211.178 309.796L207.54 311.887H207.555ZM224.749 312.132L238.458 320.039L242.095 317.948L228.386 310.04L224.749 312.132ZM226.018 308.667L214.051 301.767L210.413 303.858L222.38 310.758L226.018 308.667ZM153.973 300.301L158.848 303.11L162.485 301.019L157.61 298.21L153.973 300.301ZM237.862 300.347L255.224 310.361L258.861 308.27L241.499 298.256L237.862 300.347ZM161.844 304.85L175.155 312.529L178.793 310.437L165.481 302.759L161.844 304.85ZM204.147 319.581L221.509 329.595L225.146 327.504L207.785 317.49L204.147 319.581ZM184.753 308.392L201.152 317.856L204.789 315.765L188.39 306.3L184.753 308.392ZM105.77 253.178L113.946 257.895L117.583 255.804L109.407 251.087L105.77 253.178ZM195.39 271.664L179.832 262.688L176.194 264.78L191.753 273.755L195.39 271.664ZM170.754 276.793L155.195 267.817L151.558 269.909L167.116 278.884L170.754 276.793ZM191.126 278.884L180.825 272.946L177.188 275.038L187.489 280.976L191.126 278.884ZM149.067 273.954L133.325 264.871L129.688 266.962L145.429 276.045L149.067 273.954ZM207.433 288.288L194.122 280.609L190.484 282.701L203.796 290.379L207.433 288.288ZM97.3791 258.017L108.734 264.566L112.372 262.474L101.016 255.926L97.3791 258.017ZM130.314 263.146L120.564 257.529L116.926 259.62L126.677 265.237L130.314 263.146ZM135.618 275.862L115.383 264.184L111.745 266.275L131.98 277.953L135.618 275.862ZM211.132 280.731L198.386 273.389L194.748 275.48L207.494 282.823L211.132 280.731ZM186.495 285.861L173.749 278.518L170.112 280.609L182.858 287.952L186.495 285.861ZM181.482 292.638L168.171 284.96L164.533 287.051L177.845 294.73L181.482 292.638ZM142.48 283.998L158.038 292.974L161.675 290.883L146.117 281.907L142.48 283.998ZM211.04 300.011L198.294 292.669L194.656 294.76L207.403 302.103L211.04 300.011ZM195.298 290.929L189.491 287.585L185.853 289.677L191.661 293.02L195.298 290.929ZM206.791 292.073L212.492 295.355L216.129 293.264L210.429 289.982L206.791 292.073ZM210.49 284.532L216.297 287.876L219.935 285.784L214.127 282.441L210.49 284.532Z" fill="url(#paint4_linear_106_167)"/>
  <g opacity="0.2">
    <path opacity="0.09" d="M526.628 134.186L228.733 305.661C221.239 309.985 216.997 316.78 217.029 324.306C217.062 332.531 222.215 340.219 231.236 345.421L353.957 416.277C354.152 416.391 360.15 419.821 360.377 419.886C367.936 424.015 377.347 426.111 386.515 425.738C393.927 425.738 402.281 423.169 407.597 420.113L703.85 249.581C711.343 245.257 715.586 238.462 715.553 230.936C715.521 222.711 710.368 215.023 701.347 209.821L573.62 136.072C570.954 134.527 567.248 132.853 564.159 131.861C559.056 130.22 553.529 129.261 547.921 129.212C539.843 129.131 532.431 130.854 526.644 134.186H526.628Z" fill="black"/>
    <path opacity="0.18" d="M526.872 134.706L228.976 306.181C221.792 310.326 217.777 316.796 217.858 323.932C217.939 331.702 222.865 339 231.479 343.991L354.769 415.172C355.159 415.399 360.8 418.585 361.255 418.732C369.008 422.747 378.598 424.583 387.555 423.836C394.219 423.836 403.549 420.487 408.328 417.724L702.94 248.134C710.124 243.989 714.139 237.52 714.058 230.384C713.976 222.614 709.051 215.315 700.42 210.325L573.457 137.014C571.051 135.633 566.874 133.65 564.094 132.739C559.055 131.065 553.578 129.992 548.002 129.878C539.989 129.716 532.577 131.374 526.839 134.674L526.872 134.706Z" fill="black"/>
    <path opacity="0.27" d="M527.115 135.226L229.22 306.701C222.344 310.668 218.557 316.812 218.671 323.542C218.785 330.856 223.482 337.765 231.723 342.544L355.598 414.066C356.184 414.408 361.466 417.35 362.165 417.561C370.114 421.462 379.883 423.039 388.627 421.918C394.56 421.918 404.866 417.789 409.108 415.334L702.078 246.688C708.954 242.721 712.741 236.577 712.627 229.847C712.514 222.532 707.816 215.608 699.575 210.861L573.376 138.006C571.246 136.77 566.565 134.511 564.111 133.666C559.137 131.959 553.708 130.789 548.181 130.61C540.233 130.366 532.804 131.959 527.132 135.226H527.115Z" fill="black"/>
    <path opacity="0.36" d="M527.343 135.73L229.448 307.205C222.881 310.993 219.321 316.796 219.468 323.152C219.614 330.011 224.084 336.53 231.951 341.081L356.395 412.929C357.175 413.384 362.1 416.098 363.027 416.375C371.17 420.146 381.118 421.479 389.652 420C394.837 420 406.118 415.09 409.824 412.945L701.152 245.241C707.719 241.453 711.279 235.634 711.132 229.295C710.986 222.435 706.516 215.9 698.649 211.365L573.23 138.949C571.36 137.876 566.208 135.291 564.078 134.544C559.169 132.804 553.789 131.52 548.295 131.293C540.412 130.984 532.967 132.479 527.343 135.73V135.73Z" fill="black"/>
    <path opacity="0.45" d="M527.587 136.25L229.692 307.725C223.434 311.334 220.101 316.812 220.28 322.778C220.459 329.182 224.701 335.327 232.195 339.651L357.224 411.839C358.216 412.408 362.767 414.879 363.921 415.221C372.259 418.878 382.386 419.951 390.708 418.098C395.146 418.098 407.401 412.392 410.587 410.555L700.274 243.81C706.532 240.202 709.864 234.724 709.685 228.758C709.507 222.354 705.264 216.209 697.771 211.885L573.116 139.908C571.523 138.981 565.882 136.104 564.062 135.438C559.218 133.666 553.903 132.268 548.441 131.991C540.623 131.601 533.178 133.032 527.603 136.25H527.587Z" fill="black"/>
    <path opacity="0.55" d="M527.831 136.754L229.936 308.229C223.986 311.675 220.882 316.812 221.093 322.371C221.321 328.321 225.319 334.075 232.439 338.171L358.053 410.702C359.24 411.384 363.433 413.611 364.815 414.034C373.349 417.561 383.67 418.39 391.781 416.163C395.487 416.163 408.702 409.678 411.351 408.15L699.397 242.347C705.346 238.901 708.45 233.765 708.239 228.205C708.011 222.256 704.013 216.502 696.893 212.406L573.002 140.867C571.669 140.103 565.574 136.901 564.046 136.315C559.251 134.511 554.001 132.999 548.572 132.674C540.818 132.203 533.357 133.568 527.847 136.754H527.831Z" fill="black"/>
    <path opacity="0.64" d="M528.058 137.274L230.163 308.75C224.506 312.017 221.646 316.828 221.889 321.997C222.149 327.492 225.937 332.856 232.666 336.741L358.849 409.596C360.231 410.393 364.067 412.376 365.676 412.864C374.405 416.277 384.905 416.846 392.805 414.245C395.763 414.245 409.953 406.979 412.083 405.744L698.486 240.884C704.143 237.617 707.003 232.806 706.76 227.637C706.5 222.142 702.712 216.778 695.983 212.893L572.855 141.81C571.783 141.192 565.216 137.665 563.997 137.193C559.267 135.356 554.065 133.731 548.685 133.357C540.997 132.804 533.52 134.105 528.074 137.258L528.058 137.274Z" fill="black"/>
    <path opacity="0.73" d="M528.302 137.778L230.407 309.253C225.059 312.342 222.426 316.828 222.702 321.607C222.995 326.646 226.555 331.62 232.91 335.278L359.679 408.475C361.255 409.385 364.734 411.124 366.57 411.693C375.494 414.977 386.173 415.302 393.862 412.327C396.089 412.327 411.238 404.281 412.831 403.354L697.592 239.438C702.94 236.349 705.573 231.863 705.297 227.084C705.004 222.045 701.445 217.071 695.089 213.413L572.742 142.769C571.945 142.313 564.891 138.461 563.997 138.087C559.316 136.218 554.179 134.495 548.832 134.04C541.225 133.406 533.731 134.641 528.319 137.762L528.302 137.778Z" fill="black"/>
    <path opacity="0.82" d="M528.546 138.298L230.65 309.774C225.612 312.683 223.19 316.845 223.515 321.233C223.84 325.817 227.172 330.401 233.154 333.847L360.491 407.369C362.263 408.393 365.384 409.889 367.448 410.523C376.55 413.693 387.425 413.758 394.902 410.409C396.381 410.409 412.505 401.582 413.578 400.965L696.698 237.991C701.737 235.081 704.159 230.92 703.834 226.531C703.509 221.947 700.176 217.363 694.195 213.917L572.612 143.711C572.075 143.403 564.566 139.209 563.964 138.965C559.332 137.063 554.277 135.226 548.961 134.722C541.419 134.023 533.91 135.177 528.562 138.266L528.546 138.298Z" fill="black"/>
    <path opacity="0.91" d="M528.773 138.819L230.878 310.294C226.148 313.025 223.954 316.845 224.327 320.843C224.701 324.972 227.79 329.166 233.381 332.401L361.304 406.264C363.27 407.402 366.034 408.654 368.326 409.369C377.623 412.425 388.676 412.213 395.958 408.507C396.706 408.507 413.806 398.884 414.326 398.575L695.804 236.561C700.534 233.83 702.728 230.01 702.355 226.011C701.981 221.882 698.892 217.688 693.301 214.47L572.482 144.719C572.221 144.573 564.224 140.038 563.932 139.908C559.364 137.957 554.358 136.023 549.075 135.47C541.598 134.69 534.072 135.779 528.79 138.835L528.773 138.819Z" fill="black"/>
    <path d="M396.998 406.589L694.894 235.114C703.834 229.945 702.712 220.939 692.391 214.974L563.899 140.786C553.578 134.82 537.957 134.17 529.017 139.339L231.122 310.814C222.182 315.983 223.303 324.988 233.625 330.954L362.116 405.142C372.438 411.108 388.058 411.758 396.998 406.589Z" fill="black"/>
  </g>
  <path d="M354.802 372.957L234.666 303.597C221.109 295.778 222.816 282.107 238.469 273.07L520.955 109.966C536.608 100.928 560.275 99.9527 573.831 107.771L693.968 177.132C707.524 184.951 705.817 198.621 690.164 207.659L407.678 370.763C392.025 379.801 368.358 380.776 354.802 372.957V372.957Z" fill="url(#paint5_linear_106_167)"/>
  <path opacity="0.3" d="M354.802 373.104L234.665 303.743C228.619 300.248 225.595 295.583 225.514 290.69C225.514 290.251 225.514 280.84 225.563 280.401C226.067 274.728 230.423 277.849 238.453 273.216L520.939 110.112C536.592 101.074 560.258 100.099 573.814 107.918L693.951 177.278C699.998 180.773 703.005 174.629 703.102 179.521C703.102 179.944 703.102 191.176 703.054 191.615C702.566 197.288 698.21 203.173 690.148 207.822L407.661 370.925C392.008 379.963 368.342 380.938 354.786 373.12L354.802 373.104Z" fill="url(#paint6_linear_106_167)"/>
  <path opacity="0.33" d="M520.955 109.624C536.608 100.587 560.274 99.6113 573.831 107.43L693.967 176.791C699.884 180.204 702.533 174.482 703.021 179.245C703.086 179.814 703.086 190.672 703.005 191.258C702.159 196.833 698.047 202.669 690.001 207.253L407.775 370.34C391.472 379.606 368.651 380.158 354.899 372.648C354.867 372.648 353.29 371.722 353.258 371.706L234.681 303.239C228.651 299.76 225.693 295.111 225.546 290.251C225.53 289.699 225.595 280.579 225.693 280.027C226.587 274.5 230.585 277.28 238.485 272.712L520.971 109.608L520.955 109.624Z" fill="url(#paint7_linear_106_167)"/>
  <path opacity="0.37" d="M520.955 109.121C536.608 100.083 560.274 99.1074 573.831 106.926L693.967 176.287C699.77 179.635 702.208 174.336 702.94 178.952C703.054 179.668 703.086 190.152 702.94 190.9C701.883 196.394 697.885 202.181 689.822 206.7L407.856 369.771C390.887 379.28 368.748 379.703 354.981 372.209C354.932 372.177 353.388 371.299 353.339 371.267L234.682 302.768C228.684 299.305 225.758 294.689 225.547 289.845C225.514 289.178 225.644 280.368 225.79 279.685C226.912 274.305 230.732 276.727 238.469 272.257L520.955 109.153V109.121Z" fill="url(#paint8_linear_106_167)"/>
  <path opacity="0.4" d="M520.955 108.633C536.608 99.595 560.275 98.6197 573.831 106.438L693.967 175.799C699.64 179.066 701.981 174.206 702.842 178.676C703.005 179.554 703.054 189.648 702.859 190.542C701.672 195.955 697.69 201.693 689.627 206.131L407.938 369.17C390.318 378.907 368.846 379.215 355.062 371.722C354.981 371.673 353.485 370.828 353.404 370.779L234.682 302.231C228.7 298.785 225.807 294.185 225.547 289.373C225.498 288.577 225.693 280.092 225.888 279.263C227.188 274.012 230.862 276.093 238.469 271.704L520.955 108.6V108.633Z" fill="url(#paint9_linear_106_167)"/>
  <path opacity="0.43" d="M520.955 108.145C536.608 99.1074 560.274 98.1321 573.831 105.951L693.967 175.311C699.51 178.514 701.786 174.076 702.761 178.416C702.988 179.44 703.053 189.161 702.793 190.217C701.493 195.565 697.511 201.222 689.465 205.611L408.035 368.633C389.749 378.614 368.96 378.793 355.159 371.299C355.046 371.234 353.615 370.421 353.502 370.356L234.698 301.76C228.749 298.33 225.855 293.746 225.563 288.951C225.514 288.041 225.742 279.864 226.018 278.905C227.432 273.785 231.041 275.54 238.501 271.233L520.987 108.129L520.955 108.145Z" fill="url(#paint10_linear_106_167)"/>
  <path opacity="0.47" d="M520.955 107.658C536.608 98.6197 560.274 97.6444 573.831 105.463L693.967 174.824C699.38 177.945 701.623 173.93 702.663 178.14C702.956 179.31 703.037 188.657 702.728 189.876C701.347 195.143 697.348 200.751 689.286 205.074L408.117 368.081C389.18 378.305 369.057 378.354 355.225 370.877C355.095 370.795 353.697 370.015 353.567 369.934L234.682 301.288C228.749 297.875 225.872 293.323 225.563 288.544C225.498 287.504 225.79 279.653 226.115 278.564C227.611 273.557 231.171 274.988 238.485 270.761L520.971 107.658H520.955Z" fill="url(#paint11_linear_106_167)"/>
  <path opacity="0.5" d="M520.955 107.17C536.608 98.1321 560.274 97.1568 573.831 104.975L693.967 174.336C699.25 177.392 701.461 173.783 702.582 177.863C702.94 179.196 703.054 188.153 702.663 189.518C701.201 194.72 697.169 200.263 689.107 204.506L408.214 367.495C388.611 377.948 369.171 377.882 355.322 370.405C355.16 370.324 353.827 369.56 353.648 369.462L234.682 300.768C228.781 297.355 225.904 292.836 225.563 288.089C225.482 286.935 225.823 279.377 226.213 278.157C227.79 273.265 231.301 274.386 238.485 270.241L520.971 107.137L520.955 107.17Z" fill="url(#paint12_linear_106_167)"/>
  <path opacity="0.53" d="M520.955 106.682C536.608 97.6444 560.275 96.6691 573.831 104.488L693.968 173.848C699.136 176.823 701.331 173.637 702.485 177.603C702.907 179.083 703.038 187.665 702.582 189.193C701.054 194.33 696.975 199.792 688.912 203.985L408.279 366.959C388.026 377.655 369.252 377.46 355.387 369.983C355.192 369.885 353.908 369.154 353.713 369.04L234.666 300.313C228.798 296.916 225.904 292.429 225.547 287.699C225.449 286.415 225.839 279.182 226.295 277.832C227.936 273.053 231.431 273.85 238.453 269.786L520.939 106.682H520.955Z" fill="url(#paint13_linear_106_167)"/>
  <path opacity="0.57" d="M520.955 106.178C536.608 97.1405 560.275 96.1652 573.831 103.984L693.967 173.344C699.006 176.254 701.201 173.458 702.404 177.311C702.907 178.936 703.054 187.145 702.517 188.836C700.941 193.923 696.796 199.304 688.75 203.416L408.377 366.374C387.457 377.297 369.366 376.988 355.485 369.527C355.273 369.414 354.022 368.715 353.811 368.585L234.698 299.809C228.846 296.428 225.969 291.958 225.579 287.26C225.465 285.862 225.888 278.938 226.424 277.458C228.115 272.793 231.593 273.265 238.485 269.298L520.971 106.195L520.955 106.178Z" fill="url(#paint14_linear_106_167)"/>
  <path opacity="0.6" d="M520.955 105.691C536.608 96.6529 560.275 95.6776 573.831 103.496L693.967 172.857C698.876 175.685 701.087 173.312 702.306 177.034C702.891 178.822 703.037 186.641 702.452 188.478C700.827 193.501 696.633 198.816 688.571 202.864L408.474 365.805C386.905 376.972 369.48 376.517 355.582 369.072C355.338 368.942 354.152 368.276 353.892 368.129L234.698 299.305C228.879 295.94 225.986 291.487 225.595 286.821C225.465 285.31 225.937 278.678 226.538 277.068C228.261 272.501 231.756 272.679 238.485 268.778L520.971 105.674L520.955 105.691Z" fill="url(#paint15_linear_106_167)"/>
  <path opacity="0.63" d="M520.955 105.203C536.608 96.1652 560.275 95.1899 573.831 103.009L693.967 172.369C698.746 175.133 700.973 173.149 702.208 176.758C702.875 178.692 703.037 186.154 702.371 188.137C700.697 193.094 696.438 198.329 688.376 202.327L408.539 365.252C386.303 376.647 369.577 376.078 355.631 368.633C355.355 368.487 354.217 367.853 353.941 367.691L234.665 298.818C228.863 295.469 225.969 291.048 225.563 286.383C225.417 284.741 225.921 278.434 226.62 276.694C228.391 272.224 231.87 272.094 238.469 268.291L520.955 105.187V105.203Z" fill="url(#paint16_linear_106_167)"/>
  <path opacity="0.67" d="M520.955 104.715C536.608 95.6776 560.274 94.7023 573.83 102.521L693.967 171.882C698.616 174.564 700.859 172.987 702.127 176.498C702.875 178.579 703.053 185.666 702.306 187.795C700.583 192.704 696.259 197.857 688.213 201.775L408.637 364.667C385.75 376.306 369.691 375.607 355.728 368.178C355.436 368.016 354.347 367.414 354.038 367.252L234.681 298.346C228.911 295.014 226.002 290.609 225.579 285.976C225.416 284.221 225.953 278.206 226.733 276.353C228.537 271.98 232.032 271.542 238.469 267.819L520.955 104.715V104.715Z" fill="url(#paint17_linear_106_167)"/>
  <path opacity="0.7" d="M520.955 104.228C536.608 95.1899 560.275 94.2146 573.831 102.033L693.967 171.394C698.486 174.011 700.746 172.824 702.03 176.222C702.875 178.432 703.07 185.162 702.241 187.454C700.469 192.314 696.097 197.386 688.035 201.238L408.718 364.114C385.165 375.981 369.789 375.168 355.81 367.739C355.485 367.561 354.445 366.992 354.103 366.813L234.666 297.859C228.928 294.543 226.018 290.17 225.579 285.553C225.4 283.668 225.969 277.979 226.831 275.979C228.668 271.704 232.162 270.973 238.469 267.332L520.955 104.228V104.228Z" fill="url(#paint18_linear_106_167)"/>
  <path opacity="0.73" d="M520.955 103.74C536.608 94.7023 560.274 93.727 573.83 101.546L693.967 170.906C698.372 173.442 700.631 172.662 701.948 175.945C702.891 178.302 703.086 184.674 702.176 187.113C700.371 191.924 695.918 196.898 687.855 200.686L408.815 363.546C384.612 375.656 369.902 374.713 355.907 367.284C355.549 367.089 354.574 366.553 354.2 366.358L234.698 297.355C228.976 294.055 226.067 289.699 225.611 285.115C225.416 283.115 226.018 277.719 226.961 275.605C228.83 271.428 232.324 270.387 238.501 266.828L520.955 103.74Z" fill="url(#paint19_linear_106_167)"/>
  <path opacity="0.77" d="M520.955 103.252C536.608 94.2146 560.275 93.2393 573.831 101.058L693.967 170.419C698.242 172.889 700.534 172.499 701.851 175.685C702.891 178.172 703.102 184.187 702.095 186.771C700.242 191.518 695.723 196.427 687.661 200.149L408.881 362.993C384.011 375.33 369.984 374.274 355.972 366.862C355.599 366.666 354.656 366.146 354.266 365.935L234.682 296.883C228.993 293.6 226.067 289.276 225.595 284.708C225.384 282.579 226.002 277.491 227.042 275.264C228.944 271.184 232.455 269.835 238.469 266.372L520.955 103.252Z" fill="url(#paint20_linear_106_167)"/>
  <path opacity="0.8" d="M520.955 102.749C536.608 93.7107 560.274 92.7354 573.831 100.554L693.967 169.915C698.112 172.304 700.42 172.32 701.769 175.393C702.923 178.026 703.135 183.683 702.029 186.414C700.144 191.111 695.56 195.939 687.498 199.596L408.978 362.424C383.458 375.005 370.097 373.819 356.053 366.406C355.647 366.195 354.753 365.707 354.33 365.48L234.665 296.396C228.992 293.128 226.067 288.821 225.579 284.286C225.335 282.042 226.002 277.247 227.123 274.906C229.057 270.908 232.568 269.282 238.452 265.885L520.955 102.749Z" fill="url(#paint21_linear_106_167)"/>
  <path opacity="0.83" d="M520.955 102.261C536.608 93.223 560.274 92.2477 573.831 100.066L693.967 169.427C697.982 171.751 700.323 172.142 701.672 175.116C702.94 177.88 703.151 183.195 701.964 186.056C700.03 190.705 695.381 195.435 687.319 199.028L409.075 361.839C382.89 374.664 370.211 373.347 356.151 365.935C355.712 365.707 354.883 365.252 354.428 365.008L234.682 295.876C229.041 292.624 226.099 288.349 225.612 283.814C225.351 281.457 226.034 276.938 227.269 274.484C229.236 270.583 232.763 268.648 238.485 265.332L520.955 102.261Z" fill="url(#paint22_linear_106_167)"/>
  <path opacity="0.87" d="M520.955 101.773C536.608 92.7354 560.274 91.7601 573.83 99.5788L693.967 168.939C697.852 171.183 700.209 171.979 701.59 174.84C702.972 177.701 703.183 182.707 701.899 185.715C699.933 190.331 695.202 194.964 687.14 198.491L409.157 361.286C382.304 374.339 370.309 372.908 356.232 365.512C355.761 365.269 354.981 364.846 354.509 364.586L234.681 295.404C229.074 292.169 226.115 287.911 225.611 283.408C225.335 280.921 226.018 276.711 227.367 274.142C229.35 270.322 232.893 268.096 238.485 264.877L520.955 101.773Z" fill="url(#paint23_linear_106_167)"/>
  <path opacity="0.9" d="M520.955 101.286C536.608 92.2477 560.274 91.2724 573.83 99.0911L693.967 168.452C697.738 170.63 700.111 171.8 701.493 174.58C703.005 177.587 703.2 182.236 701.818 185.39C699.819 189.957 695.024 194.509 686.961 197.955L409.238 360.733C381.735 374.03 370.422 372.453 356.313 365.074C355.826 364.813 355.094 364.423 354.574 364.147L234.681 294.916C229.09 291.682 226.132 287.455 225.611 282.985C225.303 280.384 226.018 276.451 227.464 273.785C229.48 270.046 233.04 267.543 238.469 264.389L520.955 101.286Z" fill="url(#paint24_linear_106_167)"/>
  <path opacity="0.93" d="M520.955 100.798C536.608 91.7601 560.274 90.7848 573.831 98.6035L693.967 167.964C697.608 170.061 699.998 171.621 701.412 174.304C703.054 177.425 703.249 181.748 701.753 185.032C699.705 189.551 694.845 194.005 686.783 197.402L409.336 360.148C381.167 373.672 370.536 371.982 356.395 364.602C355.875 364.326 355.192 363.968 354.656 363.676L234.682 294.396C229.123 291.178 226.148 286.984 225.612 282.53C225.287 279.799 226.002 276.158 227.562 273.378C229.61 269.721 233.17 266.925 238.469 263.869L520.955 100.798Z" fill="url(#paint25_linear_106_167)"/>
  <path opacity="0.97" d="M520.955 100.31C536.608 91.2724 560.275 90.2971 573.831 98.1158L693.968 167.476C697.478 169.508 699.884 171.443 701.314 174.027C703.102 177.262 703.281 181.261 701.688 184.691C699.608 189.161 694.666 193.533 686.604 196.849L409.417 359.579C380.598 373.347 370.618 371.543 356.476 364.163C355.924 363.871 355.29 363.546 354.737 363.237L234.682 293.925C229.139 290.723 226.164 286.545 225.628 282.124C225.287 279.279 226.002 275.914 227.676 273.037C229.757 269.461 233.316 266.372 238.469 263.398L520.955 100.31Z" fill="url(#paint26_linear_106_167)"/>
  <path d="M354.801 362.798L234.665 293.437C221.108 285.619 222.815 271.948 238.468 262.91L520.954 99.8064C536.607 90.7685 560.274 89.7932 573.83 97.6119L693.967 166.972C707.523 174.791 705.816 188.462 686.424 196.297L409.497 359.01C378.825 373.575 370.015 370.893 354.801 362.782V362.798Z" fill="url(#paint27_linear_106_167)"/>
  <path d="M244.288 263.479L522.564 102.814C536.056 95.0274 556.471 94.1821 568.158 100.928L685.727 168.809C697.414 175.555 695.951 187.34 682.46 195.143L404.2 355.808C390.708 363.594 370.293 364.44 358.606 357.694L241.037 289.812C229.35 283.066 230.813 271.282 244.305 263.479H244.288Z" fill="white"/>
  <path opacity="0.5" d="M632.721 231.505C631.193 232.383 629.909 234.87 629.909 236.951C629.909 237.861 630.201 238.934 631.014 238.934C631.258 238.934 631.567 238.836 631.875 238.658L646.163 230.416C647.691 229.538 648.975 227.051 648.975 224.971C648.975 224.06 648.683 222.988 647.87 222.988C647.626 222.988 647.317 223.085 647.008 223.264" fill="#83D7DB"/>
  <path opacity="0.5" d="M605.511 253.661C605.754 253.661 606.063 253.563 606.372 253.385L620.66 245.143C622.188 244.266 623.472 241.779 623.472 239.698C623.472 238.788 623.179 237.715 622.366 237.715C622.123 237.715 621.814 237.812 621.505 237.991L607.217 246.232C605.689 247.11 604.405 249.597 604.405 251.678C604.405 252.588 604.698 253.661 605.511 253.661Z" fill="#83D7DB"/>
  <path style="mix-blend-mode:multiply" opacity="0.05" d="M378.907 358.198C372.341 358.198 366.164 356.718 361.483 354.004L247.246 288.041C242.435 285.261 239.786 281.522 239.786 277.523C239.786 273.541 242.403 269.851 247.149 267.104L531.667 102.83C536.267 100.164 542.395 98.701 548.897 98.701C555.398 98.701 561.64 100.196 566.321 102.895L680.558 168.858C685.369 171.638 688.018 175.376 688.018 179.391C688.018 183.406 685.401 187.064 680.655 189.811L396.121 354.085C391.521 356.751 385.393 358.214 378.891 358.214L378.907 358.198ZM548.897 100.327C542.671 100.327 536.852 101.708 532.48 104.228L247.945 268.502C243.719 270.94 241.395 274.142 241.395 277.507C241.395 280.872 243.752 284.139 248.043 286.626L362.279 352.59C366.717 355.142 372.601 356.556 378.891 356.556C385.117 356.556 390.936 355.174 395.308 352.655L679.842 188.38C684.068 185.942 686.393 182.74 686.393 179.375C686.393 176.01 684.036 172.727 679.745 170.256L565.509 104.293C561.071 101.741 555.187 100.327 548.897 100.327V100.327Z" fill="url(#paint28_linear_106_167)"/>
  <path opacity="0.3" d="M628.901 150.571L600.569 134.202C599.448 133.552 599.594 132.43 600.878 131.683C602.162 130.935 604.113 130.854 605.234 131.504L633.566 147.873C634.687 148.523 634.541 149.645 633.257 150.392C631.973 151.14 630.022 151.221 628.901 150.571Z" fill="url(#paint29_linear_106_167)"/>
  <path style="mix-blend-mode:multiply" opacity="0.3" d="M473.834 227.685L455.434 217.054L451.142 219.542L469.543 230.156L473.834 227.669V227.685ZM465.479 234.301L443.535 221.638L439.244 224.125L461.188 236.788L465.479 234.301ZM492.461 238.43L477.393 229.733L473.102 232.221L488.17 240.917L492.461 238.43ZM501.889 243.875L496.021 240.478L491.73 242.965L497.598 246.362L501.889 243.875ZM415.545 194.021L402.103 186.267L397.812 188.754L411.254 196.508L415.545 194.021ZM412.733 203.839L392.204 191.989L387.913 194.476L408.442 206.326L412.733 203.839ZM469.039 236.349L464.748 238.836L470.518 242.169L474.809 239.682L469.039 236.349ZM443.048 209.886L419.105 196.069L414.814 198.556L438.757 212.373L443.048 209.886ZM451.906 215.006L446.591 211.934L442.3 214.421L447.615 217.493L451.906 215.006ZM439.992 219.574L428.468 212.926L424.176 215.413L435.701 222.061L439.992 219.574ZM416.277 205.887L411.986 208.374L420.633 213.365L424.924 210.878L416.277 205.887V205.887ZM474.045 244.201L489.779 253.287L494.07 250.8L478.336 241.713L474.045 244.201ZM524.824 257.107L505.432 245.907L501.141 248.394L520.533 259.594L524.824 257.107ZM537.34 264.341L528.367 259.155L524.076 261.642L533.049 266.828L537.34 264.341ZM428.809 248.167L417.593 241.697L414.391 243.55L425.607 250.02L428.809 248.167V248.167ZM432.336 245.371L448.964 254.994L452.167 253.141L435.538 243.518L432.336 245.371ZM462.797 254.523L476.857 262.731L480.059 260.878L465.999 252.669L462.797 254.523ZM448.867 263.512L469.039 275.248L472.241 273.395L452.069 261.659L448.867 263.512ZM451.598 256.522L473.492 269.315L476.694 267.462L454.8 254.669L451.598 256.522ZM381.362 215.949L387.799 219.655L391.001 217.802L384.564 214.096L381.362 215.949ZM398.624 230.741L394.675 228.449L391.472 230.302L395.422 232.594L398.624 230.741ZM402.2 224.288L393.618 219.33L390.416 221.183L398.998 226.141L402.2 224.288ZM421.169 235.244L404.85 225.816L401.648 227.669L417.967 237.097L421.169 235.244V235.244ZM437.261 261.659L412.684 247.387L409.482 249.24L434.059 263.512L437.261 261.659ZM392.692 213.982L410.506 224.272L413.709 222.419L395.894 212.129L392.692 213.982ZM436.058 239.031L460.131 253.011L463.333 251.158L439.26 237.178L436.058 239.031ZM437.489 273.996L440.691 272.143L423.461 262.114L420.259 263.967L437.489 273.996ZM469.461 280.336L439.894 263.17L436.692 265.023L466.259 282.189L469.461 280.336ZM436.627 235.65L422.941 227.75L419.739 229.603L433.425 237.503L436.627 235.65ZM395.861 237.666L382.012 229.668L378.81 231.522L392.659 239.519L395.861 237.666ZM432.873 242.006L423.803 236.772L420.6 238.625L429.67 243.859L432.873 242.006ZM379.363 228.14L370.781 223.183L367.578 225.036L376.161 229.994L379.363 228.14ZM371.008 218.485L388.823 228.774L392.025 226.921L374.21 216.632L371.008 218.485ZM384.028 239.34L366.213 229.051L363.011 230.904L380.826 241.193L384.028 239.34ZM414.944 240.153L401.258 232.253L398.055 234.106L411.742 242.006L414.944 240.153ZM420.812 260.569L409.596 254.1L406.394 255.953L417.61 262.423L420.812 260.569ZM400.185 260.862L404.476 263.333L407.678 261.48L403.387 259.009L400.185 260.862ZM407.109 264.861L418.812 271.623L422.015 269.77L410.311 263.008L407.109 264.861V264.861ZM390.075 246.509L403.761 254.409L406.963 252.556L393.277 244.656L390.075 246.509ZM370 243.437L378.583 248.394L381.785 246.541L373.202 241.583L370 243.437ZM410.051 245.842L398.511 239.178L395.308 241.031L406.849 247.695L410.051 245.842ZM383.491 242.705L387.441 244.997L390.643 243.144L386.694 240.852L383.491 242.705ZM499.028 271.834L495.826 273.687L509.366 281.376L512.568 279.523L499.028 271.834ZM484.302 284.058L494.639 289.894L497.842 288.041L487.504 282.205L484.302 284.058ZM469.169 283.847L487.244 294.152L490.446 292.299L472.371 281.994L469.169 283.847ZM466.162 290.625L479.702 298.314L482.904 296.461L469.364 288.772L466.162 290.625ZM440.138 275.508L463.512 289.097L466.714 287.244L443.34 273.655L440.138 275.508ZM381.232 249.922L397.552 259.35L400.754 257.497L384.434 248.069L381.232 249.922ZM393.26 210.601L375.641 200.409L372.438 202.262L390.058 212.454L393.26 210.601V210.601ZM479.49 264.259L493.177 272.159L496.379 270.306L482.692 262.406L479.49 264.259ZM413.14 225.783L417.089 228.075L420.292 226.222L416.342 223.93L413.14 225.783V225.783ZM504.929 283.652L478.84 268.713L475.638 270.566L501.726 285.505L504.929 283.652ZM485.391 281.018L474.858 274.939L471.656 276.792L482.188 282.871L485.391 281.018ZM449.42 260.163L431.442 249.695L428.24 251.548L446.217 262.016L449.42 260.163ZM381.915 212.584L368.245 204.668L365.043 206.521L378.713 214.437L381.915 212.584ZM335.557 223.557L358.297 236.707L361.499 234.854L338.759 221.703L335.557 223.557ZM363.58 227.555L346.123 217.461L342.92 219.314L360.378 229.408L363.58 227.555ZM368.147 221.671L353.486 213.186L350.284 215.039L364.929 223.524L368.131 221.671H368.147ZM371.561 215.12L360.865 208.927L357.663 210.78L368.359 216.973L371.561 215.12ZM360.914 238.219L367.351 241.925L370.553 240.072L364.116 236.366L360.914 238.219Z" fill="url(#paint30_linear_106_167)"/>
  <path opacity="0.3" d="M635.208 181.96L651.592 191.42C652.275 191.81 653.364 191.81 654.031 191.42C654.697 191.03 654.697 190.396 654.031 190.006L637.646 180.545C636.963 180.155 635.874 180.155 635.208 180.545C634.542 180.936 634.542 181.57 635.208 181.96ZM649.918 192.395L633.534 182.935C632.851 182.545 631.762 182.545 631.096 182.935C630.429 183.325 630.429 183.959 631.096 184.349L647.48 193.81C648.163 194.2 649.252 194.2 649.918 193.81C650.585 193.42 650.585 192.786 649.918 192.395V192.395ZM645.806 194.769L629.421 185.308C628.739 184.918 627.65 184.918 626.983 185.308C626.317 185.698 626.317 186.332 626.983 186.722L643.368 196.183C644.05 196.573 645.139 196.573 645.806 196.183C646.472 195.793 646.472 195.159 645.806 194.769Z" fill="url(#paint31_linear_106_167)"/>
  <path style="mix-blend-mode:multiply" opacity="0.3" d="M501.726 130.691C499.89 129.602 497.598 129.602 495.761 130.691L411.969 179.782L549.336 259.09L626.414 214.584C630.315 212.324 630.348 206.716 626.463 204.424L501.743 130.707L501.726 130.691Z" fill="url(#paint32_linear_106_167)"/>
  <path style="mix-blend-mode:multiply" opacity="0.3" d="M529.992 111.803L520.451 117.313C518.679 118.337 518.679 120.906 520.451 121.93L530.09 127.489C530.919 127.96 531.927 127.96 532.756 127.489L542.297 121.978C544.069 120.954 544.069 118.386 542.297 117.362L532.658 111.803C531.829 111.331 530.821 111.331 529.992 111.803Z" fill="url(#paint33_linear_106_167)"/>
  <path opacity="0.3" d="M321.188 231.083L268.052 262.91C264.574 264.991 264.639 270.079 268.198 272.062L324.016 303.142C325.642 304.052 327.625 304.036 329.218 303.109L382.353 272.436C385.881 270.404 385.881 265.316 382.353 263.284L326.536 231.05C324.878 230.091 322.83 230.107 321.188 231.099V231.083Z" fill="url(#paint34_linear_106_167)"/>
  <path style="mix-blend-mode:multiply" opacity="0.31" d="M398.055 343.324L451.272 312.602C454.621 310.668 454.621 305.84 451.272 303.922L397.762 273.086C396.218 272.192 394.3 272.192 392.756 273.086L339.555 303.808C336.207 305.742 336.207 310.57 339.555 312.488L393.065 343.34C394.609 344.234 396.527 344.234 398.071 343.34L398.055 343.324Z" fill="url(#paint35_linear_106_167)"/>
  <path opacity="0.6" d="M443.503 304.751C441.877 303.808 439.569 303.532 437.521 303.889C438.155 302.719 437.651 301.37 436.042 300.443C433.717 299.094 429.963 299.094 427.655 300.443C423.428 302.882 426.143 310.473 426.143 310.473C426.143 310.473 439.309 312.049 443.519 309.611C445.827 308.278 445.811 306.1 443.486 304.767L443.503 304.751Z" fill="url(#paint36_linear_106_167)"/>
  <path opacity="0.02" d="M298.253 375.818L186.39 310.846C179.206 306.701 179.027 296.396 186.049 291.991L326.893 202.311C330.339 200.149 334.712 200.068 338.239 202.116L457.352 271.379C464.666 275.605 464.682 286.171 457.368 290.414L309.274 375.802C305.86 377.785 301.667 377.785 298.253 375.802V375.818Z" fill="black" fill-opacity="0.1"/>
  <path opacity="0.05" d="M298.952 374.176L189.495 310.603C182.261 306.425 182.099 296.038 189.186 291.633L326.829 204.571C330.291 202.409 334.663 202.344 338.207 204.392L454.247 271.883C461.61 276.142 461.61 286.756 454.263 291.015L310.038 374.16C306.608 376.143 302.382 376.159 298.952 374.16V374.176Z" fill="black" fill-opacity="0.1"/>
  <path opacity="0.07" d="M299.651 372.518L192.599 310.326C185.317 306.116 185.155 295.664 192.323 291.243L326.747 206.814C330.226 204.668 334.598 204.603 338.142 206.651L451.126 272.354C458.522 276.629 458.538 287.293 451.143 291.584L310.785 372.502C307.339 374.502 303.097 374.502 299.651 372.502V372.518Z" fill="black" fill-opacity="0.1"/>
  <path opacity="0.1" d="M300.35 370.877L195.704 310.066C188.373 305.824 188.227 295.29 195.444 290.869L326.666 209.073C330.16 206.928 334.549 206.879 338.093 208.927L448.005 272.858C455.434 277.15 455.45 287.878 448.022 292.186L311.533 370.86C308.071 372.876 303.796 372.876 300.334 370.86L300.35 370.877Z" fill="black" fill-opacity="0.1"/>
  <path opacity="0.12" d="M301.049 369.219L198.808 309.806C191.429 305.547 191.299 294.933 198.581 290.495L326.601 211.316C330.112 209.187 334.501 209.122 338.06 211.186L444.917 273.33C452.394 277.654 452.394 288.431 444.933 292.755L312.313 369.202C308.835 371.218 304.544 371.234 301.065 369.202L301.049 369.219Z" fill="black" fill-opacity="0.1"/>
  <path opacity="0.15" d="M301.748 367.577L201.913 309.546C194.485 305.255 194.371 294.559 201.718 290.121L326.519 213.576C330.047 211.446 334.435 211.398 338.011 213.462L441.812 273.834C449.322 278.174 449.338 289 441.828 293.356L313.061 367.561C309.566 369.592 305.242 369.592 301.748 367.561V367.577Z" fill="black" fill-opacity="0.1"/>
  <path opacity="0.17" d="M302.463 365.919L205.034 309.27C197.541 304.946 197.459 294.169 204.871 289.731L326.471 215.803C329.998 213.673 334.419 213.641 337.979 215.705L438.708 274.305C446.25 278.661 446.266 289.552 438.74 293.941L313.841 365.919C310.33 367.967 305.99 367.967 302.463 365.935V365.919Z" fill="black" fill-opacity="0.1"/>
  <path opacity="0.2" d="M303.162 364.261L208.122 309.01C200.58 304.653 200.515 293.811 207.976 289.357L326.357 218.062C329.901 215.949 334.322 215.917 337.898 217.981L435.571 274.793C443.162 279.182 443.178 290.121 435.603 294.526L314.573 364.261C311.046 366.309 306.689 366.325 303.146 364.277L303.162 364.261Z" fill="black" fill-opacity="0.1"/>
  <path opacity="0.22" d="M303.861 362.619L211.227 308.75C203.636 304.377 203.571 293.437 211.113 288.967L326.292 220.289C329.852 218.176 334.273 218.144 337.865 220.224L432.466 275.264C440.089 279.669 440.105 290.658 432.498 295.095L315.336 362.603C311.793 364.667 307.404 364.667 303.844 362.619H303.861Z" fill="black" fill-opacity="0.1"/>
  <path opacity="0.25" d="M304.56 360.961L214.331 308.489C206.692 304.084 206.643 293.08 214.25 288.593L326.227 222.549C329.803 220.436 334.241 220.419 337.833 222.5L429.378 275.752C437.034 280.173 437.05 291.227 429.41 295.68L316.117 360.945C312.557 363.025 308.152 363.025 304.576 360.961H304.56Z" fill="black" fill-opacity="0.1"/>
  <path opacity="0.27" d="M305.259 359.319L217.436 308.229C209.748 303.792 209.715 292.706 217.371 288.219L326.13 224.792C329.722 222.695 334.159 222.679 337.751 224.759L426.224 276.239C433.929 280.693 433.945 291.795 426.257 296.266L316.832 359.303C313.24 361.384 308.819 361.4 305.226 359.319H305.259Z" fill="black" fill-opacity="0.1"/>
  <path opacity="0.3" d="M305.958 357.661L220.541 307.953C212.803 303.483 212.787 292.316 220.508 287.829L326.064 227.035C329.673 224.938 334.11 224.938 337.719 227.019L423.136 276.727C430.873 281.197 430.889 292.364 423.169 296.851L317.612 357.645C314.004 359.742 309.566 359.742 305.958 357.661Z" fill="black" fill-opacity="0.1"/>
  <path d="M303.455 354.28L182.538 284.009C177.629 281.148 177.645 274.045 182.554 271.217L324.927 189.193C327.219 187.877 330.047 187.877 332.323 189.193L453.239 259.464C458.148 262.325 458.132 269.428 453.223 272.257L310.85 354.28C308.559 355.597 305.73 355.597 303.455 354.28V354.28Z" fill="white"/>
  <path style="mix-blend-mode:multiply" opacity="0.3" d="M284.957 302.166L273.79 295.713L270.604 297.55L281.771 304.003L284.957 302.166ZM288.468 299.387L300.122 306.116L303.308 304.279L291.654 297.55L288.468 299.387ZM305.99 301.028L311.078 303.971L314.264 302.134L309.176 299.192L305.99 301.028ZM292.125 309.985L303.292 316.438L306.478 314.601L295.311 308.148L292.125 309.985ZM302.756 307.644L307.746 310.521L310.932 308.685L305.941 305.807L302.756 307.644ZM237.722 270.095L244.126 273.785L247.312 271.948L240.907 268.258L237.722 270.095ZM254.902 284.822L250.969 282.546L247.783 284.383L251.717 286.659L254.902 284.822ZM258.462 278.401L249.929 273.476L246.743 275.313L255.276 280.238L258.462 278.401ZM277.35 289.308L261.095 279.929L257.91 281.766L274.164 291.145L277.35 289.308ZM280.568 308.116L268.914 301.386L265.728 303.223L277.382 309.952L280.568 308.116ZM249.002 268.128L266.736 278.369L269.922 276.532L252.188 266.291L249.002 268.128ZM292.19 293.063L303.357 299.517L306.543 297.68L295.376 291.227L292.19 293.063ZM280.796 320.404L283.982 318.568L279.625 316.048L276.44 317.885L280.796 320.404ZM303.715 321.494L283.185 309.644L279.999 311.48L300.529 323.33L303.715 321.494ZM292.743 289.715L279.105 281.847L275.919 283.684L289.557 291.552L292.743 289.715ZM252.155 291.714L238.355 283.749L235.17 285.586L248.97 293.551L252.155 291.714ZM289.004 296.038L279.967 290.82L276.781 292.657L285.818 297.875L289.004 296.038ZM235.722 282.237L227.189 277.312L224.003 279.149L232.536 284.074L235.722 282.237ZM227.4 272.631L245.134 282.871L248.319 281.035L230.586 270.794L227.4 272.631ZM240.371 293.405L222.637 283.164L219.451 285.001L237.185 295.242L240.371 293.405ZM271.157 294.217L257.519 286.35L254.334 288.187L267.971 296.054L271.157 294.217V294.217ZM276.992 314.553L265.825 308.099L262.64 309.936L273.806 316.389L276.992 314.553ZM246.385 300.557L260.023 308.424L263.208 306.588L249.571 298.72L246.385 300.557V300.557ZM266.264 299.891L254.772 293.258L251.587 295.095L263.078 301.727L266.264 299.891ZM239.818 296.77L243.752 299.045L246.938 297.208L243.004 294.933L239.818 296.77ZM333.135 313.057L329.949 314.894L344.172 323.054L347.358 321.217L333.135 313.057ZM318.474 325.216L329.494 331.539L332.68 329.702L321.659 323.379L318.474 325.216ZM303.406 325.005L322.131 335.782L325.317 333.945L306.592 323.168L303.406 325.005ZM249.555 264.796L233.056 255.368L229.871 257.205L246.369 266.633L249.555 264.796ZM313.695 305.499L327.332 313.366L330.518 311.529L316.881 303.662L313.695 305.499V305.499ZM269.353 279.897L273.286 282.172L276.472 280.336L272.539 278.06L269.353 279.897ZM339.751 325.314L313.061 309.936L309.875 311.773L336.565 327.15L339.751 325.314ZM319.563 322.176L309.079 316.113L305.893 317.95L316.377 324.013L319.563 322.176ZM292.645 306.636L287.558 303.694L284.372 305.531L289.459 308.473L292.645 306.636ZM238.242 266.746L225.677 259.594L222.491 261.431L235.056 268.583L238.242 266.746ZM219.988 281.652L203.652 272.322L200.466 274.159L216.802 283.489L219.988 281.652V281.652ZM224.539 275.8L210.983 268.079L207.797 269.916L221.353 277.637L224.539 275.8ZM227.936 269.282L218.33 263.837L215.144 265.674L224.75 271.119L227.936 269.282Z" fill="url(#paint37_linear_106_167)"/>
  <g style="mix-blend-mode:multiply" opacity="0.3">
    <path opacity="0.7" d="M440.057 267.884L426.436 260.017L423.25 261.854L436.871 269.721L440.057 267.884Z" fill="url(#paint38_linear_106_167)"/>
    <path opacity="0.7" d="M403.371 246.606L393.423 240.852L390.237 242.689L400.185 248.443L403.371 246.606Z" fill="url(#paint39_linear_106_167)"/>
    <path opacity="0.7" d="M401.29 253.872L386.076 245.095L382.89 246.931L398.104 255.709L401.29 253.872Z" fill="url(#paint40_linear_106_167)"/>
    <path opacity="0.7" d="M423.738 258.359L406.004 248.118L402.818 249.955L420.552 260.196L423.738 258.359Z" fill="url(#paint41_linear_106_167)"/>
    <path opacity="0.7" d="M421.478 265.543L412.945 260.602L409.759 262.439L418.309 267.38L421.478 265.543Z" fill="url(#paint42_linear_106_167)"/>
    <path opacity="0.7" d="M403.907 255.4L400.737 257.237L407.142 260.927L410.311 259.09L403.907 255.4Z" fill="url(#paint43_linear_106_167)"/>
  </g>
  <g style="mix-blend-mode:multiply" opacity="0.3">
    <path opacity="0.7" d="M418.052 282.556L404.431 274.688L401.245 276.525L414.866 284.393L418.052 282.556Z" fill="url(#paint44_linear_106_167)"/>
    <path opacity="0.7" d="M381.366 261.278L371.418 255.524L368.232 257.36L378.18 263.115L381.366 261.278Z" fill="url(#paint45_linear_106_167)"/>
    <path opacity="0.7" d="M379.285 268.544L364.071 259.766L360.885 261.603L376.099 270.381L379.285 268.544Z" fill="url(#paint46_linear_106_167)"/>
    <path opacity="0.7" d="M401.733 273.03L383.999 262.79L380.813 264.626L398.547 274.867L401.733 273.03Z" fill="url(#paint47_linear_106_167)"/>
    <path opacity="0.7" d="M399.473 280.215L390.94 275.274L387.754 277.11L396.304 282.052L399.473 280.215Z" fill="url(#paint48_linear_106_167)"/>
    <path opacity="0.7" d="M381.902 270.072L378.732 271.909L385.137 275.599L388.306 273.762L381.902 270.072Z" fill="url(#paint49_linear_106_167)"/>
  </g>
  <g style="mix-blend-mode:multiply" opacity="0.3">
    <path opacity="0.7" d="M396.047 296.31L382.426 288.443L379.24 290.28L392.861 298.147L396.047 296.31Z" fill="url(#paint50_linear_106_167)"/>
    <path opacity="0.7" d="M359.361 275.032L349.413 269.278L346.227 271.115L356.175 276.869L359.361 275.032Z" fill="url(#paint51_linear_106_167)"/>
    <path opacity="0.7" d="M357.28 282.299L342.066 273.521L338.88 275.358L354.094 284.135L357.28 282.299Z" fill="url(#paint52_linear_106_167)"/>
    <path opacity="0.7" d="M379.728 286.785L361.994 276.544L358.808 278.381L376.542 288.622L379.728 286.785Z" fill="url(#paint53_linear_106_167)"/>
    <path opacity="0.7" d="M377.468 293.97L368.934 289.028L365.749 290.865L374.298 295.807L377.468 293.97Z" fill="url(#paint54_linear_106_167)"/>
    <path opacity="0.7" d="M359.897 283.826L356.727 285.663L363.131 289.353L366.301 287.516L359.897 283.826Z" fill="url(#paint55_linear_106_167)"/>
  </g>
  <path opacity="0.3" d="M330.827 270.826L379.721 242.591C383.362 240.494 383.362 235.228 379.721 233.115L328.308 203.433C326.585 202.441 324.472 202.457 322.765 203.481L273.872 232.773C270.263 234.935 270.344 240.202 274.018 242.25L325.431 270.875C327.105 271.818 329.153 271.802 330.827 270.826V270.826Z" fill="url(#paint56_linear_106_167)"/>
  <path opacity="0.02" d="M387.083 261.691L285.607 203.108C275.09 197.028 275.058 181.846 285.574 175.75L411.319 102.927C416.211 100.083 422.258 100.083 427.167 102.911L528.643 161.495C539.16 167.574 539.193 182.756 528.676 188.852L402.931 261.675C398.039 264.519 391.992 264.519 387.083 261.691V261.691Z" fill="black" fill-opacity="0.1"/>
  <path opacity="0.05" d="M387.799 260.147L287.395 202.165C277.138 196.248 277.122 181.44 287.362 175.506L410.783 104.033C415.561 101.269 421.445 101.253 426.224 104.016L526.628 161.998C536.885 167.915 536.901 182.724 526.66 188.657L403.24 260.131C398.462 262.894 392.578 262.91 387.799 260.147V260.147Z" fill="black" fill-opacity="0.1"/>
  <path opacity="0.07" d="M388.498 258.619L289.15 201.255C279.17 195.484 279.138 181.082 289.118 175.279L410.23 105.138C414.879 102.44 420.616 102.423 425.265 105.122L524.612 162.486C534.593 168.257 534.625 182.659 524.645 188.462L403.533 258.603C398.884 261.301 393.146 261.317 388.498 258.619Z" fill="black" fill-opacity="0.1"/>
  <path opacity="0.1" d="M389.196 257.091L290.906 200.344C281.186 194.736 281.169 180.708 290.873 175.068L409.661 106.276C414.18 103.643 419.771 103.643 424.306 106.26L522.597 163.006C532.317 168.614 532.333 182.642 522.629 188.283L403.842 257.075C399.323 259.708 393.731 259.708 389.196 257.091V257.091Z" fill="black" fill-opacity="0.1"/>
  <path opacity="0.12" d="M389.912 255.563L292.678 199.418C283.217 193.956 283.201 180.318 292.645 174.84L409.108 107.381C413.513 104.829 418.942 104.813 423.347 107.365L520.581 163.51C530.041 168.972 530.058 182.61 520.614 188.088L404.151 255.547C399.746 258.099 394.317 258.115 389.912 255.563V255.563Z" fill="black" fill-opacity="0.1"/>
  <path opacity="0.15" d="M390.611 254.035L294.433 198.507C285.249 193.208 285.233 179.944 294.401 174.612L408.539 108.487C412.814 106 418.097 106 422.372 108.47L518.55 163.998C527.733 169.297 527.75 182.561 518.582 187.893L404.443 254.019C400.168 256.506 394.886 256.506 390.611 254.035V254.035Z" fill="black" fill-opacity="0.1"/>
  <path opacity="0.17" d="M391.326 252.507L296.205 197.581C287.281 192.428 287.265 179.57 296.172 174.385L407.987 109.608C412.132 107.202 417.268 107.186 421.413 109.592L516.534 164.518C525.458 169.671 525.474 182.529 516.566 187.714L404.752 252.491C400.607 254.896 395.471 254.913 391.326 252.507V252.507Z" fill="black" fill-opacity="0.1"/>
  <path opacity="0.2" d="M392.025 250.979L297.96 196.671C289.313 191.68 289.296 179.196 297.928 174.174L407.418 110.73C411.449 108.389 416.423 108.389 420.454 110.714L514.518 165.022C523.165 170.012 523.182 182.496 514.551 187.519L405.061 250.963C401.03 253.303 396.056 253.303 392.025 250.979V250.979Z" fill="black" fill-opacity="0.1"/>
  <path opacity="0.22" d="M392.724 249.451L299.716 195.744C291.328 190.9 291.312 178.806 299.683 173.946L406.849 111.851C410.75 109.576 415.577 109.576 419.479 111.835L512.486 165.542C520.874 170.386 520.89 182.48 512.519 187.34L405.353 249.435C401.452 251.71 396.625 251.71 392.724 249.451V249.451Z" fill="black" fill-opacity="0.1"/>
  <path opacity="0.25" d="M393.439 247.923L301.488 194.834C293.377 190.152 293.344 178.432 301.455 173.718L406.313 112.957C410.084 110.762 414.765 110.746 418.536 112.941L510.487 166.03C518.598 170.711 518.631 182.431 510.52 187.145L405.662 247.907C401.891 250.101 397.226 250.117 393.439 247.923V247.923Z" fill="black" fill-opacity="0.1"/>
  <path opacity="0.27" d="M394.138 246.395L303.243 193.923C295.392 189.388 295.376 178.058 303.211 173.507L405.744 114.095C409.401 111.965 413.903 111.965 417.577 114.078L508.472 166.55C516.323 171.085 516.339 182.415 508.504 186.966L405.971 246.379C402.314 248.508 397.811 248.508 394.138 246.395V246.395Z" fill="black" fill-opacity="0.1"/>
  <path opacity="0.3" d="M394.853 244.851L305.015 192.981C297.424 188.608 297.408 177.668 304.982 173.263L405.191 115.184C408.718 113.136 413.074 113.119 416.618 115.167L506.456 167.038C514.047 171.41 514.063 182.35 506.489 186.755L406.28 244.834C402.753 246.883 398.397 246.899 394.853 244.851V244.851Z" fill="black" fill-opacity="0.1"/>
  <path d="M404.492 233.391L287.883 169.752C283.38 167.298 283.006 161.299 287.216 158.942L407.987 91.4025C409.937 90.3134 412.424 90.3459 414.521 91.4838L531.13 155.123C535.633 157.577 536.007 163.575 531.797 165.932L411.026 233.472C409.076 234.561 406.589 234.529 404.492 233.391V233.391Z" fill="white"/>
  <path opacity="0.1" d="M468.339 178.27L381.329 128.025C378.81 126.562 378.826 122.905 381.362 121.491L393.488 114.696C394.642 114.046 396.056 114.062 397.21 114.712L484.22 164.957C486.739 166.42 486.723 170.077 484.187 171.491L472.062 178.286C470.907 178.936 469.493 178.92 468.339 178.27Z" fill="url(#paint57_linear_106_167)"/>
  <path opacity="0.1" d="M440.414 194.655L353.404 144.41C350.885 142.947 350.901 139.306 353.437 137.876L365.563 131.081C366.717 130.431 368.131 130.447 369.285 131.097L456.295 181.342C458.814 182.805 458.798 186.446 456.263 187.877L444.137 194.671C442.983 195.321 441.569 195.305 440.414 194.655V194.655Z" fill="url(#paint58_linear_106_167)"/>
  <path opacity="0.1" d="M401.387 202.344L333.298 163.023C326.682 159.203 326.65 154.05 333.216 151.481C339.783 148.929 350.462 149.953 357.062 153.773L425.151 193.094C431.767 196.914 431.8 202.067 425.233 204.636C418.666 207.188 407.987 206.164 401.387 202.344V202.344Z" fill="url(#paint59_linear_106_167)"/>
  <path opacity="0.4" d="M397.616 128.708C397.08 128.204 396.771 127.619 396.755 127.05C396.755 126.709 397.243 126.432 397.844 126.432C398.624 126.432 399.437 126.351 400.185 126.172C400.591 126.318 401.306 126.367 401.696 126.14C402.086 125.912 402.216 125.603 402.038 125.392C403.614 124.384 404.346 123.197 402.103 121.897C399.86 120.597 397.779 121.019 396.04 121.93C395.682 121.816 395.162 121.897 394.756 122.125C394.366 122.352 394.463 122.759 394.707 123.002C394.398 123.441 394.268 123.913 394.268 124.352C394.268 124.693 393.78 124.986 393.179 124.986C392.187 124.986 391.196 124.807 390.318 124.482C389.148 124.059 387.604 124.14 386.596 124.725L384.84 125.733C384.499 125.928 384.499 126.253 384.84 126.449L394.203 131.845C394.544 132.04 395.097 132.04 395.438 131.845L397.194 130.837C398.202 130.252 398.348 129.358 397.616 128.692V128.708Z" fill="url(#paint60_linear_106_167)"/>
  <path opacity="0.4" d="M373.543 142.866L373.462 142.817L375.592 141.582C376.957 140.786 376.957 139.501 375.592 138.721L373.869 137.73C372.487 136.933 370.276 136.933 368.895 137.73L366.765 138.965L366.684 138.916C366.05 138.542 365.01 138.542 364.376 138.916L359.077 141.972C358.443 142.346 358.443 142.931 359.077 143.305L365.953 147.271C366.587 147.645 367.627 147.645 368.261 147.271L373.56 144.215C374.194 143.841 374.194 143.256 373.56 142.882L373.543 142.866ZM366.115 143.679L364.864 144.394L364.002 143.89L365.254 143.175C365.075 142.882 365.172 142.541 365.579 142.314C366.131 141.988 367.025 141.988 367.594 142.314C368.147 142.639 368.147 143.159 367.594 143.468C367.188 143.695 366.619 143.76 366.115 143.663V143.679ZM372.016 141.972L368.212 139.778L369.919 138.786C370.699 138.331 371.967 138.347 372.747 138.786L373.722 139.355C374.502 139.81 374.502 140.542 373.722 140.981L372.016 141.972Z" fill="url(#paint61_linear_106_167)"/>
  <g opacity="0.3">
    <path opacity="0.2" d="M391.05 151.286L385.523 151.709L385.474 151.741L389.782 153.643L388.075 154.619L384.727 152.164L384.678 152.197L384.093 155.334L381.606 154.944L383.605 152.05L383.556 152.018L378.387 153.107L377.851 151.758L383.296 151.384L383.345 151.351L379.135 149.466L380.842 148.49L384.077 150.896L384.125 150.864L384.808 147.726L387.214 148.1L385.296 151.01L385.344 151.042L390.383 149.905L391.05 151.27V151.286Z" fill="url(#paint62_linear_106_167)"/>
    <path opacity="0.4" d="M401.501 157.317L395.975 157.74L395.926 157.772L400.233 159.674L398.527 160.649L395.178 158.195L395.13 158.227L394.544 161.364L392.058 160.974L394.057 158.081L394.008 158.048L388.839 159.138L388.303 157.788L393.748 157.414L393.797 157.382L389.587 155.496L391.294 154.521L394.528 156.927L394.577 156.894L395.26 153.757L397.665 154.131L395.747 157.041L395.796 157.073L400.835 155.935L401.501 157.301V157.317Z" fill="url(#paint63_linear_106_167)"/>
    <path opacity="0.6" d="M411.953 163.348L406.426 163.77L406.378 163.803L410.685 165.705L408.978 166.68L405.63 164.225L405.581 164.258L404.996 167.395L402.509 167.005L404.508 164.112L404.46 164.079L399.291 165.168L398.754 163.819L404.2 163.445L404.248 163.413L400.038 161.527L401.745 160.552L404.98 162.957L405.029 162.925L405.711 159.788L408.117 160.162L406.199 163.071L406.248 163.104L411.287 161.966L411.953 163.331V163.348Z" fill="url(#paint64_linear_106_167)"/>
    <path opacity="0.8" d="M422.405 169.378L416.878 169.801L416.829 169.833L421.137 171.735L419.43 172.711L416.082 170.256L416.033 170.289L415.448 173.426L412.961 173.036L414.96 170.142L414.911 170.11L409.742 171.199L409.206 169.85L414.651 169.476L414.7 169.443L410.49 167.558L412.197 166.582L415.432 168.988L415.48 168.956L416.163 165.818L418.569 166.192L416.651 169.102L416.699 169.134L421.738 167.997L422.405 169.362V169.378Z" fill="url(#paint65_linear_106_167)"/>
    <path d="M432.856 175.425L427.33 175.848L427.281 175.88L431.588 177.782L429.882 178.757L426.533 176.303L426.485 176.335L425.899 179.473L423.412 179.083L425.412 176.189L425.363 176.157L420.194 177.246L419.658 175.897L425.103 175.523L425.152 175.49L420.942 173.605L422.649 172.629L425.883 175.035L425.932 175.003L426.615 171.865L429.02 172.239L427.102 175.149L427.151 175.181L432.19 174.043L432.856 175.409V175.425Z" fill="url(#paint66_linear_106_167)"/>
  </g>
  <path opacity="0.02" d="M539.55 210.731L413.35 136.901C407.352 133.438 407.19 124.823 413.074 121.133L447.891 93.9708C450.784 92.1665 454.425 92.1015 457.367 93.8082L589.63 171.231C595.741 174.775 595.758 183.601 589.63 187.145L548.75 210.715C545.905 212.373 542.378 212.373 539.534 210.715L539.55 210.731Z" fill="black" fill-opacity="0.2"/>
  <path opacity="0.05" d="M540.135 209.35L415.935 136.673C409.888 133.178 409.742 124.498 415.675 120.808L447.81 95.8401C450.703 94.0358 454.36 93.987 457.319 95.6938L587.029 171.638C593.173 175.198 593.189 184.073 587.045 187.633L549.4 209.333C546.539 210.991 542.996 211.008 540.135 209.333V209.35Z" fill="black" fill-opacity="0.2"/>
  <path opacity="0.07" d="M540.72 207.968L418.535 136.445C412.44 132.934 412.31 124.189 418.308 120.499L447.761 97.7257C450.671 95.9214 454.328 95.8726 457.286 97.5794L584.428 172.028C590.605 175.604 590.621 184.528 584.445 188.104L550.034 207.935C547.157 209.61 543.597 209.61 540.72 207.935V207.968Z" fill="black" fill-opacity="0.2"/>
  <path opacity="0.1" d="M541.305 206.586L421.12 136.234C414.992 132.69 414.878 123.88 420.909 120.19L447.68 99.6113C450.606 97.8233 454.263 97.7745 457.237 99.4813L581.828 172.45C588.037 176.043 588.053 185.016 581.844 188.608L550.668 206.57C547.775 208.244 544.199 208.26 541.305 206.57V206.586Z" fill="black" fill-opacity="0.2"/>
  <path opacity="0.12" d="M541.89 205.205L423.72 136.007C417.544 132.447 417.446 123.571 423.525 119.865L447.615 101.481C450.54 99.6926 454.214 99.6438 457.188 101.367L579.211 172.841C585.452 176.449 585.469 185.455 579.227 189.079L551.285 205.172C548.376 206.863 544.784 206.863 541.874 205.172L541.89 205.205Z" fill="black" fill-opacity="0.2"/>
  <path opacity="0.15" d="M542.476 203.823L426.321 135.795C420.112 132.203 420.015 123.263 426.159 119.556L447.566 103.366C450.508 101.578 454.181 101.546 457.172 103.269L576.642 173.263C582.917 176.888 582.933 185.942 576.659 189.583L551.952 203.807C549.026 205.497 545.418 205.513 542.492 203.807L542.476 203.823Z" fill="black" fill-opacity="0.2"/>
  <path opacity="0.17" d="M543.061 202.441L428.906 135.568C422.648 131.959 422.566 122.954 428.759 119.231L447.485 105.236C450.443 103.464 454.133 103.431 457.107 105.154L574.009 173.67C580.316 177.311 580.332 186.414 574.025 190.087L552.553 202.441C549.611 204.148 545.986 204.148 543.044 202.441H543.061Z" fill="black" fill-opacity="0.2"/>
  <path opacity="0.2" d="M543.646 201.059L431.507 135.34C425.2 131.699 425.135 122.629 431.393 118.906L447.436 107.105C450.394 105.333 454.1 105.301 457.091 107.04L571.441 174.06C577.78 177.717 577.797 186.869 571.458 190.559L553.204 201.043C550.245 202.766 546.604 202.766 543.646 201.043V201.059Z" fill="black" fill-opacity="0.2"/>
  <path opacity="0.22" d="M544.231 199.694L434.107 135.145C427.768 131.488 427.719 122.352 434.01 118.614L447.371 109.007C450.346 107.235 454.052 107.219 457.042 108.958L568.824 174.499C575.196 178.172 575.212 187.373 568.84 191.079L553.821 199.694C550.847 201.417 547.19 201.417 544.215 199.694H544.231Z" fill="black" fill-opacity="0.2"/>
  <path opacity="0.25" d="M544.816 198.312L436.692 134.917C430.304 131.228 430.271 122.027 436.627 118.288L447.306 110.892C450.297 109.137 454.003 109.121 457.01 110.844L566.24 174.889C572.644 178.595 572.66 187.828 566.256 191.55L554.471 198.296C551.497 200.035 547.807 200.035 544.816 198.296V198.312Z" fill="black" fill-opacity="0.2"/>
  <path opacity="0.27" d="M545.401 196.931L439.292 134.69C432.872 130.984 432.839 121.718 439.243 117.963L447.241 112.762C450.248 111.006 453.954 110.99 456.961 112.729L563.622 175.295C570.059 179.018 570.075 188.299 563.655 192.038L555.105 196.914C552.114 198.654 548.408 198.67 545.401 196.914V196.931Z" fill="black" fill-opacity="0.2"/>
  <path opacity="0.3" d="M545.987 195.549L441.877 134.479C435.408 130.74 435.391 121.409 441.844 117.654L447.159 114.647C450.167 112.892 453.889 112.892 456.912 114.647L561.022 175.718C567.491 179.456 567.507 188.787 561.054 192.542L555.739 195.549C552.732 197.305 549.01 197.305 545.987 195.549V195.549Z" fill="black" fill-opacity="0.2"/>
  <path d="M546.019 196.833L423.558 125.668C419.153 123.116 419.17 116.744 423.575 114.208L457.026 94.9461C459.074 93.7595 461.61 93.7757 463.658 94.9461L586.119 166.111C590.524 168.663 590.508 175.035 586.103 177.571L552.651 196.833C550.603 198.02 548.067 198.004 546.019 196.833V196.833Z" fill="white"/>
  <path d="M549.952 181.667L447.598 122.433C445.111 120.987 445.128 117.378 447.647 115.964L459.854 109.121C460.992 108.47 462.406 108.487 463.544 109.153L565.898 168.387C568.385 169.833 568.369 173.442 565.849 174.856L553.642 181.7C552.504 182.35 551.09 182.334 549.952 181.667V181.667Z" fill="#E9F6FE"/>
  <path opacity="0.4" d="M553.886 178.4V174.71C553.87 174.32 553.398 173.995 552.781 173.897V172.824C556.032 172.564 558.535 170.971 558.519 169.021C558.519 166.891 555.512 165.152 551.806 165.152C548.099 165.152 545.125 166.875 545.141 169.004C545.141 170.955 547.677 172.564 550.928 172.841V173.913C550.31 174.011 549.855 174.336 549.855 174.71V178.4C549.871 178.855 550.521 179.245 551.334 179.245H552.423C553.22 179.245 553.87 178.871 553.87 178.416L553.886 178.4ZM551.854 171.54C549.416 171.54 547.449 170.386 547.433 168.988C547.417 167.59 549.384 166.452 551.822 166.452C554.26 166.452 556.227 167.606 556.243 169.004C556.243 170.402 554.292 171.54 551.854 171.54Z" fill="url(#paint67_linear_106_167)"/>
  <g opacity="0.3">
    <path d="M297.066 267.299L280.812 257.92L277.626 259.757L293.88 269.136L297.066 267.299Z" fill="url(#paint68_linear_106_167)"/>
    <path d="M299.683 268.827L296.514 270.664L300.772 273.118L303.958 271.282L299.683 268.827Z" fill="url(#paint69_linear_106_167)"/>
    <path d="M278.179 256.408L269.645 251.467L266.459 253.303L274.993 258.245L278.179 256.408Z" fill="url(#paint70_linear_106_167)"/>
    <path d="M260.608 246.249L257.422 248.085L263.826 251.792L267.012 249.955L260.608 246.249Z" fill="url(#paint71_linear_106_167)"/>
    <path d="M303.406 274.646L315.06 281.376L318.246 279.539L306.592 272.81L303.406 274.646Z" fill="url(#paint72_linear_106_167)"/>
  </g>
  <defs>
    <linearGradient id="paint0_linear_106_167" x1="548.961" y1="52.4065" x2="604.227" y2="52.4065" gradientUnits="userSpaceOnUse">
      <stop stop-color="#2C82FF"/>
      <stop offset="1" stop-color="#12C6E3"/>
    </linearGradient>
    <linearGradient id="paint1_linear_106_167" x1="532.918" y1="93.2068" x2="609.396" y2="93.2068" gradientUnits="userSpaceOnUse">
      <stop stop-color="#2C82FF"/>
      <stop offset="1" stop-color="#12C6E3"/>
    </linearGradient>
    <linearGradient id="paint2_linear_106_167" x1="449.257" y1="65.6706" x2="554.813" y2="65.6706" gradientUnits="userSpaceOnUse">
      <stop stop-color="#2C82FF"/>
      <stop offset="1" stop-color="#12C6E3"/>
    </linearGradient>
    <linearGradient id="paint3_linear_106_167" x1="294.709" y1="107.95" x2="667.359" y2="107.95" gradientUnits="userSpaceOnUse">
      <stop stop-color="#2C82FF"/>
      <stop offset="1" stop-color="#12C6E3"/>
    </linearGradient>
    <linearGradient id="paint4_linear_106_167" x1="42.1763" y1="306.728" x2="676.642" y2="306.728" gradientUnits="userSpaceOnUse">
      <stop stop-color="#2C82FF"/>
      <stop offset="1" stop-color="#12C6E3"/>
    </linearGradient>
    <linearGradient id="paint5_linear_106_167" x1="703.411" y1="190.624" x2="216.995" y2="291.804" gradientUnits="userSpaceOnUse">
      <stop stop-color="#2C82FF"/>
      <stop offset="1" stop-color="#12C6E3"/>
    </linearGradient>
    <linearGradient id="paint6_linear_106_167" x1="701.412" y1="194.297" x2="214.85" y2="289.106" gradientUnits="userSpaceOnUse">
      <stop stop-color="#85ACE3"/>
      <stop offset="1" stop-color="#85ACE3"/>
    </linearGradient>
    <linearGradient id="paint7_linear_106_167" x1="692.309" y1="161.153" x2="226.014" y2="322.376" gradientUnits="userSpaceOnUse">
      <stop stop-color="#82AAE4"/>
      <stop offset="1" stop-color="#83ACE3"/>
    </linearGradient>
    <linearGradient id="paint8_linear_106_167" x1="674.527" y1="131.813" x2="245.857" y2="351.356" gradientUnits="userSpaceOnUse">
      <stop stop-color="#80A8E6"/>
      <stop offset="1" stop-color="#82ACE3"/>
    </linearGradient>
    <linearGradient id="paint9_linear_106_167" x1="648.666" y1="107.446" x2="272.057" y2="372.78" gradientUnits="userSpaceOnUse">
      <stop stop-color="#7DA6E7"/>
      <stop offset="1" stop-color="#80ACE3"/>
    </linearGradient>
    <linearGradient id="paint10_linear_106_167" x1="617.864" y1="91.9226" x2="303.718" y2="387.054" gradientUnits="userSpaceOnUse">
      <stop stop-color="#7BA4E8"/>
      <stop offset="0.19" stop-color="#7CA6E6"/>
      <stop offset="1" stop-color="#7FACE3"/>
    </linearGradient>
    <linearGradient id="paint11_linear_106_167" x1="584.282" y1="85.7132" x2="338.145" y2="392.454" gradientUnits="userSpaceOnUse">
      <stop stop-color="#78A2EA"/>
      <stop offset="0.32" stop-color="#7AA6E6"/>
      <stop offset="1" stop-color="#7DACE3"/>
    </linearGradient>
    <linearGradient id="paint12_linear_106_167" x1="550.587" y1="89.1267" x2="372.785" y2="388.637" gradientUnits="userSpaceOnUse">
      <stop stop-color="#76A0EB"/>
      <stop offset="0.4" stop-color="#79A7E6"/>
      <stop offset="1" stop-color="#7CACE3"/>
    </linearGradient>
    <linearGradient id="paint13_linear_106_167" x1="525.848" y1="86.4284" x2="397.998" y2="392.834" gradientUnits="userSpaceOnUse">
      <stop stop-color="#739EEC"/>
      <stop offset="0.46" stop-color="#77A7E5"/>
      <stop offset="1" stop-color="#7AACE3"/>
    </linearGradient>
    <linearGradient id="paint14_linear_106_167" x1="502.75" y1="86.1195" x2="422.935" y2="392.494" gradientUnits="userSpaceOnUse">
      <stop stop-color="#719CEE"/>
      <stop offset="0.5" stop-color="#76A7E5"/>
      <stop offset="1" stop-color="#78ACE3"/>
    </linearGradient>
    <linearGradient id="paint15_linear_106_167" x1="480.66" y1="91.3374" x2="446.767" y2="386.237" gradientUnits="userSpaceOnUse">
      <stop stop-color="#6E9AEF"/>
      <stop offset="0.08" stop-color="#6F9CED"/>
      <stop offset="0.53" stop-color="#75A8E5"/>
      <stop offset="1" stop-color="#77ACE3"/>
    </linearGradient>
    <linearGradient id="paint16_linear_106_167" x1="460.7" y1="101.399" x2="467.82" y2="374.599" gradientUnits="userSpaceOnUse">
      <stop stop-color="#6C98F0"/>
      <stop offset="0.14" stop-color="#6E9DEC"/>
      <stop offset="0.55" stop-color="#73A8E5"/>
      <stop offset="1" stop-color="#75ACE3"/>
    </linearGradient>
    <linearGradient id="paint17_linear_106_167" x1="444.396" y1="115.314" x2="485.247" y2="358.522" gradientUnits="userSpaceOnUse">
      <stop stop-color="#6996F2"/>
      <stop offset="0.19" stop-color="#6D9EEC"/>
      <stop offset="0.56" stop-color="#72A8E5"/>
      <stop offset="1" stop-color="#74ACE3"/>
    </linearGradient>
    <linearGradient id="paint18_linear_106_167" x1="432.32" y1="132.008" x2="498.009" y2="339.291" gradientUnits="userSpaceOnUse">
      <stop stop-color="#6794F3"/>
      <stop offset="0.22" stop-color="#6C9FEB"/>
      <stop offset="0.56" stop-color="#70A8E5"/>
      <stop offset="1" stop-color="#72ACE3"/>
    </linearGradient>
    <linearGradient id="paint19_linear_106_167" x1="424.891" y1="150.409" x2="505.632" y2="318.711" gradientUnits="userSpaceOnUse">
      <stop stop-color="#6492F4"/>
      <stop offset="0.25" stop-color="#6A9FEB"/>
      <stop offset="0.56" stop-color="#6FA9E4"/>
      <stop offset="1" stop-color="#71ACE3"/>
    </linearGradient>
    <linearGradient id="paint20_linear_106_167" x1="410.62" y1="151.741" x2="519.141" y2="314.614" gradientUnits="userSpaceOnUse">
      <stop stop-color="#6290F6"/>
      <stop offset="0.02" stop-color="#6291F5"/>
      <stop offset="0.27" stop-color="#69A0EA"/>
      <stop offset="0.56" stop-color="#6DA9E4"/>
      <stop offset="1" stop-color="#6FACE3"/>
    </linearGradient>
    <linearGradient id="paint21_linear_106_167" x1="380.354" y1="138.022" x2="549.131" y2="327.29" gradientUnits="userSpaceOnUse">
      <stop stop-color="#5F8EF7"/>
      <stop offset="0.05" stop-color="#6192F4"/>
      <stop offset="0.28" stop-color="#67A0EA"/>
      <stop offset="0.56" stop-color="#6BA9E4"/>
      <stop offset="1" stop-color="#6DACE3"/>
    </linearGradient>
    <linearGradient id="paint22_linear_106_167" x1="347.309" y1="133.113" x2="581.884" y2="331.546" gradientUnits="userSpaceOnUse">
      <stop stop-color="#5D8CF8"/>
      <stop offset="0.08" stop-color="#6093F3"/>
      <stop offset="0.29" stop-color="#66A1EA"/>
      <stop offset="0.55" stop-color="#6AA9E4"/>
      <stop offset="1" stop-color="#6CACE3"/>
    </linearGradient>
    <linearGradient id="paint23_linear_106_167" x1="314.052" y1="137.469" x2="614.929" y2="326.83" gradientUnits="userSpaceOnUse">
      <stop stop-color="#5A8AFA"/>
      <stop offset="0.1" stop-color="#5E94F3"/>
      <stop offset="0.29" stop-color="#65A1E9"/>
      <stop offset="0.54" stop-color="#68A9E4"/>
      <stop offset="1" stop-color="#6AACE3"/>
    </linearGradient>
    <linearGradient id="paint24_linear_106_167" x1="283.201" y1="150.571" x2="645.843" y2="313.079" gradientUnits="userSpaceOnUse">
      <stop stop-color="#5888FB"/>
      <stop offset="0.11" stop-color="#5E95F2"/>
      <stop offset="0.29" stop-color="#64A2E9"/>
      <stop offset="0.52" stop-color="#67A9E4"/>
      <stop offset="1" stop-color="#69ACE3"/>
    </linearGradient>
    <linearGradient id="paint25_linear_106_167" x1="256.885" y1="171.719" x2="672.026" y2="291.478" gradientUnits="userSpaceOnUse">
      <stop stop-color="#5586FC"/>
      <stop offset="0.13" stop-color="#5C96F1"/>
      <stop offset="0.29" stop-color="#62A2E9"/>
      <stop offset="0.51" stop-color="#66A9E4"/>
      <stop offset="1" stop-color="#67ACE3"/>
    </linearGradient>
    <linearGradient id="paint26_linear_106_167" x1="237.12" y1="199.206" x2="691.498" y2="263.441" gradientUnits="userSpaceOnUse">
      <stop stop-color="#5385FC"/>
      <stop offset="0.13" stop-color="#5B96F1"/>
      <stop offset="0.28" stop-color="#61A2E9"/>
      <stop offset="0.49" stop-color="#65AAE4"/>
      <stop offset="1" stop-color="#66ACE3"/>
    </linearGradient>
    <linearGradient id="paint27_linear_106_167" x1="225.513" y1="230.888" x2="702.777" y2="230.888" gradientUnits="userSpaceOnUse">
      <stop stop-color="#5082FF"/>
      <stop offset="0.02" stop-color="#5286FB"/>
      <stop offset="0.13" stop-color="#5A97F0"/>
      <stop offset="0.27" stop-color="#5FA3E8"/>
      <stop offset="0.46" stop-color="#63AAE4"/>
      <stop offset="1" stop-color="#64ACE3"/>
    </linearGradient>
    <linearGradient id="paint28_linear_106_167" x1="540.688" y1="108.064" x2="312.885" y2="465.197" gradientUnits="userSpaceOnUse">
      <stop stop-color="#6782FF"/>
      <stop offset="1" stop-color="#12C6E3"/>
    </linearGradient>
    <linearGradient id="paint29_linear_106_167" x1="599.805" y1="141.046" x2="634.313" y2="141.046" gradientUnits="userSpaceOnUse">
      <stop stop-color="#2C82FF"/>
      <stop offset="1" stop-color="#12C6E3"/>
    </linearGradient>
    <linearGradient id="paint30_linear_106_167" x1="335.557" y1="242.299" x2="537.34" y2="242.299" gradientUnits="userSpaceOnUse">
      <stop stop-color="#2C82FF"/>
      <stop offset="1" stop-color="#12C6E3"/>
    </linearGradient>
    <linearGradient id="paint31_linear_106_167" x1="626.479" y1="188.348" x2="654.534" y2="188.348" gradientUnits="userSpaceOnUse">
      <stop stop-color="#2C82FF"/>
      <stop offset="1" stop-color="#12C6E3"/>
    </linearGradient>
    <linearGradient id="paint32_linear_106_167" x1="411.969" y1="194.46" x2="629.34" y2="194.46" gradientUnits="userSpaceOnUse">
      <stop stop-color="#2C82FF"/>
      <stop offset="1" stop-color="#12C6E3"/>
    </linearGradient>
    <linearGradient id="paint33_linear_106_167" x1="519.102" y1="119.654" x2="543.613" y2="119.654" gradientUnits="userSpaceOnUse">
      <stop stop-color="#2C82FF"/>
      <stop offset="1" stop-color="#12C6E3"/>
    </linearGradient>
    <linearGradient id="paint34_linear_106_167" x1="265.484" y1="267.055" x2="385.003" y2="267.055" gradientUnits="userSpaceOnUse">
      <stop stop-color="#2C82FF"/>
      <stop offset="1" stop-color="#12C6E3"/>
    </linearGradient>
    <linearGradient id="paint35_linear_106_167" x1="337.02" y1="308.197" x2="453.759" y2="308.197" gradientUnits="userSpaceOnUse">
      <stop stop-color="#2C82FF"/>
      <stop offset="1" stop-color="#12C6E3"/>
    </linearGradient>
    <linearGradient id="paint36_linear_106_167" x1="422.339" y1="276.337" x2="443.195" y2="326.727" gradientUnits="userSpaceOnUse">
      <stop stop-color="#2C82FF"/>
      <stop offset="1" stop-color="#12C6E3"/>
    </linearGradient>
    <linearGradient id="paint37_linear_106_167" x1="200.499" y1="295.55" x2="347.358" y2="295.55" gradientUnits="userSpaceOnUse">
      <stop stop-color="#2C82FF"/>
      <stop offset="1" stop-color="#12C6E3"/>
    </linearGradient>
    <linearGradient id="paint38_linear_106_167" x1="423.25" y1="264.861" x2="440.057" y2="264.861" gradientUnits="userSpaceOnUse">
      <stop stop-color="#2C82FF"/>
      <stop offset="1" stop-color="#12C6E3"/>
    </linearGradient>
    <linearGradient id="paint39_linear_106_167" x1="390.237" y1="244.656" x2="403.371" y2="244.656" gradientUnits="userSpaceOnUse">
      <stop stop-color="#2C82FF"/>
      <stop offset="1" stop-color="#12C6E3"/>
    </linearGradient>
    <linearGradient id="paint40_linear_106_167" x1="382.89" y1="250.41" x2="401.29" y2="250.41" gradientUnits="userSpaceOnUse">
      <stop stop-color="#2C82FF"/>
      <stop offset="1" stop-color="#12C6E3"/>
    </linearGradient>
    <linearGradient id="paint41_linear_106_167" x1="402.818" y1="254.165" x2="423.738" y2="254.165" gradientUnits="userSpaceOnUse">
      <stop stop-color="#2C82FF"/>
      <stop offset="1" stop-color="#12C6E3"/>
    </linearGradient>
    <linearGradient id="paint42_linear_106_167" x1="409.759" y1="263.999" x2="421.478" y2="263.999" gradientUnits="userSpaceOnUse">
      <stop stop-color="#2C82FF"/>
      <stop offset="1" stop-color="#12C6E3"/>
    </linearGradient>
    <linearGradient id="paint43_linear_106_167" x1="400.737" y1="258.164" x2="410.311" y2="258.164" gradientUnits="userSpaceOnUse">
      <stop stop-color="#2C82FF"/>
      <stop offset="1" stop-color="#12C6E3"/>
    </linearGradient>
    <linearGradient id="paint44_linear_106_167" x1="401.245" y1="279.532" x2="418.052" y2="279.532" gradientUnits="userSpaceOnUse">
      <stop stop-color="#2C82FF"/>
      <stop offset="1" stop-color="#12C6E3"/>
    </linearGradient>
    <linearGradient id="paint45_linear_106_167" x1="368.232" y1="259.327" x2="381.366" y2="259.327" gradientUnits="userSpaceOnUse">
      <stop stop-color="#2C82FF"/>
      <stop offset="1" stop-color="#12C6E3"/>
    </linearGradient>
    <linearGradient id="paint46_linear_106_167" x1="360.885" y1="265.082" x2="379.285" y2="265.082" gradientUnits="userSpaceOnUse">
      <stop stop-color="#2C82FF"/>
      <stop offset="1" stop-color="#12C6E3"/>
    </linearGradient>
    <linearGradient id="paint47_linear_106_167" x1="380.813" y1="268.836" x2="401.733" y2="268.836" gradientUnits="userSpaceOnUse">
      <stop stop-color="#2C82FF"/>
      <stop offset="1" stop-color="#12C6E3"/>
    </linearGradient>
    <linearGradient id="paint48_linear_106_167" x1="387.754" y1="278.671" x2="399.473" y2="278.671" gradientUnits="userSpaceOnUse">
      <stop stop-color="#2C82FF"/>
      <stop offset="1" stop-color="#12C6E3"/>
    </linearGradient>
    <linearGradient id="paint49_linear_106_167" x1="378.732" y1="272.835" x2="388.306" y2="272.835" gradientUnits="userSpaceOnUse">
      <stop stop-color="#2C82FF"/>
      <stop offset="1" stop-color="#12C6E3"/>
    </linearGradient>
    <linearGradient id="paint50_linear_106_167" x1="379.24" y1="293.287" x2="396.047" y2="293.287" gradientUnits="userSpaceOnUse">
      <stop stop-color="#2C82FF"/>
      <stop offset="1" stop-color="#12C6E3"/>
    </linearGradient>
    <linearGradient id="paint51_linear_106_167" x1="346.227" y1="273.082" x2="359.361" y2="273.082" gradientUnits="userSpaceOnUse">
      <stop stop-color="#2C82FF"/>
      <stop offset="1" stop-color="#12C6E3"/>
    </linearGradient>
    <linearGradient id="paint52_linear_106_167" x1="338.88" y1="278.836" x2="357.28" y2="278.836" gradientUnits="userSpaceOnUse">
      <stop stop-color="#2C82FF"/>
      <stop offset="1" stop-color="#12C6E3"/>
    </linearGradient>
    <linearGradient id="paint53_linear_106_167" x1="358.808" y1="282.591" x2="379.728" y2="282.591" gradientUnits="userSpaceOnUse">
      <stop stop-color="#2C82FF"/>
      <stop offset="1" stop-color="#12C6E3"/>
    </linearGradient>
    <linearGradient id="paint54_linear_106_167" x1="365.749" y1="292.425" x2="377.468" y2="292.425" gradientUnits="userSpaceOnUse">
      <stop stop-color="#2C82FF"/>
      <stop offset="1" stop-color="#12C6E3"/>
    </linearGradient>
    <linearGradient id="paint55_linear_106_167" x1="356.727" y1="286.59" x2="366.301" y2="286.59" gradientUnits="userSpaceOnUse">
      <stop stop-color="#2C82FF"/>
      <stop offset="1" stop-color="#12C6E3"/>
    </linearGradient>
    <linearGradient id="paint56_linear_106_167" x1="230.375" y1="71.0023" x2="408.437" y2="378.657" gradientUnits="userSpaceOnUse">
      <stop stop-color="#2C82FF"/>
      <stop offset="1" stop-color="#12C6E3"/>
    </linearGradient>
    <linearGradient id="paint57_linear_106_167" x1="379.444" y1="146.491" x2="486.105" y2="146.491" gradientUnits="userSpaceOnUse">
      <stop stop-color="#2C82FF"/>
      <stop offset="1" stop-color="#12C6E3"/>
    </linearGradient>
    <linearGradient id="paint58_linear_106_167" x1="351.519" y1="162.876" x2="458.181" y2="162.876" gradientUnits="userSpaceOnUse">
      <stop stop-color="#2C82FF"/>
      <stop offset="1" stop-color="#12C6E3"/>
    </linearGradient>
    <linearGradient id="paint59_linear_106_167" x1="339.11" y1="102.166" x2="314.62" y2="246.518" gradientUnits="userSpaceOnUse">
      <stop stop-color="#2C82FF"/>
      <stop offset="1" stop-color="#12C6E3"/>
    </linearGradient>
    <linearGradient id="paint60_linear_106_167" x1="384.58" y1="126.546" x2="403.517" y2="126.546" gradientUnits="userSpaceOnUse">
      <stop stop-color="#2C82FF"/>
      <stop offset="1" stop-color="#12C6E3"/>
    </linearGradient>
    <linearGradient id="paint61_linear_106_167" x1="358.589" y1="142.33" x2="376.616" y2="142.33" gradientUnits="userSpaceOnUse">
      <stop stop-color="#2C82FF"/>
      <stop offset="1" stop-color="#12C6E3"/>
    </linearGradient>
    <linearGradient id="paint62_linear_106_167" x1="377.851" y1="151.53" x2="391.05" y2="151.53" gradientUnits="userSpaceOnUse">
      <stop stop-color="#2C82FF"/>
      <stop offset="1" stop-color="#12C6E3"/>
    </linearGradient>
    <linearGradient id="paint63_linear_106_167" x1="388.303" y1="157.561" x2="401.501" y2="157.561" gradientUnits="userSpaceOnUse">
      <stop stop-color="#2C82FF"/>
      <stop offset="1" stop-color="#12C6E3"/>
    </linearGradient>
    <linearGradient id="paint64_linear_106_167" x1="398.754" y1="163.591" x2="411.953" y2="163.591" gradientUnits="userSpaceOnUse">
      <stop stop-color="#2C82FF"/>
      <stop offset="1" stop-color="#12C6E3"/>
    </linearGradient>
    <linearGradient id="paint65_linear_106_167" x1="409.206" y1="169.638" x2="422.405" y2="169.638" gradientUnits="userSpaceOnUse">
      <stop stop-color="#2C82FF"/>
      <stop offset="1" stop-color="#12C6E3"/>
    </linearGradient>
    <linearGradient id="paint66_linear_106_167" x1="419.658" y1="175.669" x2="432.856" y2="175.669" gradientUnits="userSpaceOnUse">
      <stop stop-color="#2C82FF"/>
      <stop offset="1" stop-color="#12C6E3"/>
    </linearGradient>
    <linearGradient id="paint67_linear_106_167" x1="545.157" y1="172.19" x2="558.535" y2="172.19" gradientUnits="userSpaceOnUse">
      <stop stop-color="#2C82FF"/>
      <stop offset="1" stop-color="#12C6E3"/>
    </linearGradient>
    <linearGradient id="paint68_linear_106_167" x1="237.543" y1="212.714" x2="337.512" y2="314.711" gradientUnits="userSpaceOnUse">
      <stop stop-color="#2C82FF"/>
      <stop offset="1" stop-color="#12C6E3"/>
    </linearGradient>
    <linearGradient id="paint69_linear_106_167" x1="240.403" y1="209.919" x2="340.372" y2="311.915" gradientUnits="userSpaceOnUse">
      <stop stop-color="#2C82FF"/>
      <stop offset="1" stop-color="#12C6E3"/>
    </linearGradient>
    <linearGradient id="paint70_linear_106_167" x1="234.211" y1="215.982" x2="334.18" y2="317.979" gradientUnits="userSpaceOnUse">
      <stop stop-color="#2C82FF"/>
      <stop offset="1" stop-color="#12C6E3"/>
    </linearGradient>
    <linearGradient id="paint71_linear_106_167" x1="231.984" y1="218.176" x2="331.952" y2="320.173" gradientUnits="userSpaceOnUse">
      <stop stop-color="#2C82FF"/>
      <stop offset="1" stop-color="#12C6E3"/>
    </linearGradient>
    <linearGradient id="paint72_linear_106_167" x1="242.744" y1="207.626" x2="342.713" y2="309.623" gradientUnits="userSpaceOnUse">
      <stop stop-color="#2C82FF"/>
      <stop offset="1" stop-color="#12C6E3"/>
    </linearGradient>
  </defs>
</svg>
